<?xml version="1.0" encoding="UTF-8" standalone="no"?>
<!-- Created with Inkscape (http://www.inkscape.org/) -->

<svg
   width="1309.2666"
   height="283.46457"
   viewBox="0 0 346.41011 75.000003"
   version="1.1"
   id="svg5"
   sodipodi:docname="somedigit-ori.svg"
   inkscape:version="1.1 (c68e22c387, 2021-05-23)"
   xmlns:inkscape="http://www.inkscape.org/namespaces/inkscape"
   xmlns:sodipodi="http://sodipodi.sourceforge.net/DTD/sodipodi-0.dtd"
   xmlns="http://www.w3.org/2000/svg"
   xmlns:svg="http://www.w3.org/2000/svg">
  <sodipodi:namedview
     id="namedview7"
     pagecolor="#ffffff"
     bordercolor="#111111"
     borderopacity="1"
     inkscape:pageshadow="0"
     inkscape:pageopacity="0"
     inkscape:pagecheckerboard="1"
     inkscape:document-units="px"
     showgrid="true"
     inkscape:zoom="0.41640055"
     inkscape:cx="516.32977"
     inkscape:cy="345.82087"
     inkscape:window-width="1366"
     inkscape:window-height="703"
     inkscape:window-x="0"
     inkscape:window-y="0"
     inkscape:window-maximized="1"
     inkscape:current-layer="layer1"
     units="px"
     inkscape:snap-global="false">
    <inkscape:grid
       type="axonomgrid"
       id="grid15389"
       originx="-112.58332"
       originy="-160" />
  </sodipodi:namedview>
  <defs
     id="defs2" />
  <g
     inkscape:label="Layer 1"
     inkscape:groupmode="layer"
     id="layer1"
     transform="translate(-112.58333,-160)">
    <g
       id="g10762"
       transform="translate(0,87.451072)">
      <path
         style="font-variation-settings:normal;opacity:1;fill:none;fill-opacity:0;stroke:#8694c5;stroke-width:6.08542;stroke-linecap:round;stroke-linejoin:round;stroke-miterlimit:4;stroke-dasharray:none;stroke-dashoffset:0;stroke-opacity:1;paint-order:stroke fill markers;stop-color:#000000;stop-opacity:1"
         d="M 151.55444,222.5 173.20508,210 v -25 l -21.65064,-12.5 m 8.66026,15 4.33013,2.5 v 15 l -4.33013,2.5"
         id="path32115"
         sodipodi:nodetypes="cccccccc" />
      <path
         style="font-variation-settings:normal;opacity:1;fill:#000000;fill-opacity:0;stroke:#2d3f7f;stroke-width:6.08542;stroke-linecap:round;stroke-linejoin:round;stroke-miterlimit:4;stroke-dasharray:none;stroke-dashoffset:0;stroke-opacity:1;paint-order:stroke fill markers;stop-color:#000000;stop-opacity:1"
         d="m 147.22432,185 4.33013,-2.5 -1e-5,-10 -21.65063,12.5 21.65063,12.5 v 25 L 129.90381,210 v -15 l 8.66025,5 4.33013,2.5 v 5"
         id="path31886"
         sodipodi:nodetypes="ccccccccc" />
    </g>
    <g
       id="g10773"
       transform="translate(-4.506884)">
      <g
         id="g10659"
         transform="translate(-46.767061,-74.776857)">
        <path
           id="path3350"
           style="color:#000000;fill:#8694c5;fill-opacity:1;stroke:#e0e3ef;stroke-width:16;stroke-linecap:round;stroke-linejoin:round;stroke-miterlimit:4;stroke-dasharray:none;stroke-opacity:1;paint-order:stroke fill markers"
           d="m 324.5957,318.39453 a 11.501156,11.501156 0 0 0 -0.65429,0.0312 11.500007,11.500007 0 0 0 -1.08594,0.0508 11.501156,11.501156 0 0 0 -1.10352,0.18164 11.500007,11.500007 0 0 0 -0.67773,0.11133 11.500007,11.500007 0 0 0 -0.39649,0.14844 11.501156,11.501156 0 0 0 -1.04687,0.39648 11.500007,11.500007 0 0 0 -0.98633,0.44922 11.501156,11.501156 0 0 0 -0.3457,0.15821 l -81.82813,47.24414 a 11.501156,11.501156 0 0 0 0,19.91601 l 76.07813,43.92188 v 67.93554 l -58.82617,-33.96289 v -30.14062 l 15.47851,8.93945 10.61524,6.12695 v 12.26172 a 11.500007,11.500007 0 0 0 11.50195,11.5 11.500007,11.500007 0 0 0 11.5,-11.5 v -18.89844 a 11.501156,11.501156 0 0 0 -5.75,-9.95898 l -16.36524,-9.44726 -32.73242,-18.89844 a 11.501156,11.501156 0 0 0 -17.25,9.95898 v 56.69141 a 11.501156,11.501156 0 0 0 5.75,9.95898 l 81.82813,47.24414 a 11.501156,11.501156 0 0 0 0.35547,0.16211 11.500007,11.500007 0 0 0 0.94531,0.43164 11.501156,11.501156 0 0 0 1.10547,0.41602 11.500007,11.500007 0 0 0 1.0039,0.24414 11.501156,11.501156 0 0 0 1.16602,0.19141 11.500007,11.500007 0 0 0 1.04883,0.0508 11.501156,11.501156 0 0 0 1.15039,-0.0371 11.500007,11.500007 0 0 0 1.0625,-0.15235 11.501156,11.501156 0 0 0 1.12695,-0.26367 11.500007,11.500007 0 0 0 0.99024,-0.34375 11.501156,11.501156 0 0 0 1.05859,-0.47851 11.500007,11.500007 0 0 0 0.48828,-0.22071 l 81.82813,-47.24414 a 11.501156,11.501156 0 0 0 5.75,-9.95898 V 377.125 a 11.501156,11.501156 0 0 0 -5.75,-9.95898 l -81.82813,-47.24414 a 11.500007,11.500007 0 0 0 -0.49219,-0.22266 11.501156,11.501156 0 0 0 -1.04101,-0.47266 11.500007,11.500007 0 0 0 -1.01758,-0.35156 11.501156,11.501156 0 0 0 -1.10742,-0.25781 11.500007,11.500007 0 0 0 -1.07227,-0.1543 11.501156,11.501156 0 0 0 -0.47461,-0.0684 z m -12.04687,31.40235 v 11.24218 l -10.61524,6.12696 a 11.500007,11.500007 0 0 0 -4.20703,15.70898 11.500007,11.500007 0 0 0 15.70703,4.20703 l 16.36719,-9.44922 a 11.501156,11.501156 0 0 0 5.75,-9.95703 v -17.87695 l 58.82617,33.96094 v 81.21679 l -58.82617,33.96094 v -74.57031 a 11.501156,11.501156 0 0 0 -5.75,-9.95703 L 265.22266,377.125 Z m 43.48047,25.30078 a 11.500007,11.500007 0 0 0 -9.20703,5.72461 11.500007,11.500007 0 0 0 4.20703,15.70898 l 10.61523,6.12695 v 43.41992 l -10.61523,6.12696 a 11.500007,11.500007 0 0 0 -4.20703,15.70898 11.500007,11.500007 0 0 0 15.70898,4.20703 l 16.36523,-9.44921 a 11.501156,11.501156 0 0 0 5.75,-9.95704 v -56.69336 a 11.501156,11.501156 0 0 0 -5.75,-9.95703 l -16.36523,-9.44922 a 11.500007,11.500007 0 0 0 -6.50195,-1.51757 z"
           transform="matrix(0.26458333,0,0,0.26458333,112.58333,160)" />
        <path
           style="color:#000000;fill:#8694c5;stroke-linecap:round;stroke-linejoin:round;-inkscape-stroke:none;paint-order:stroke fill markers"
           d="m 197.5343,244.34129 a 3.0427101,3.0427101 0 0 0 -1.84766,1.41797 3.0427101,3.0427101 0 0 0 1.11328,4.15625 l 20.12891,11.62109 v 21.48828 l -20.12891,11.62109 a 3.0427101,3.0427101 0 0 0 -1.11328,4.15625 3.0427101,3.0427101 0 0 0 4.15625,1.11329 l 21.65039,-12.5 a 3.0430143,3.0430143 0 0 0 1.52149,-2.63477 v -25 a 3.0430143,3.0430143 0 0 0 -1.52149,-2.63477 l -21.65039,-12.5 a 3.0427101,3.0427101 0 0 0 -2.30859,-0.30468 z m 10.96875,15.30468 a 3.0427101,3.0427101 0 0 0 -4.15625,1.11329 3.0427101,3.0427101 0 0 0 1.11328,4.15625 l 2.80859,1.62109 v 11.48828 l -2.80859,1.62109 a 3.0427101,3.0427101 0 0 0 -1.11328,4.15625 3.0427101,3.0427101 0 0 0 4.15625,1.11329 l 4.33008,-2.5 a 3.0430143,3.0430143 0 0 0 1.52148,-2.63477 v -15 a 3.0430143,3.0430143 0 0 0 -1.52148,-2.63477 z"
           id="path3100" />
        <path
           style="color:#000000;fill:#2d3f7f;stroke-linecap:round;stroke-linejoin:round;-inkscape-stroke:none;paint-order:stroke fill markers"
           d="m 196.79992,244.64597 -21.65039,12.5 a 3.0430143,3.0430143 0 0 0 0,5.26954 l 20.12891,11.62109 v 17.97461 l -15.56445,-8.98633 v -7.97461 l 4.0957,2.36524 2.80859,1.62109 v 3.24414 a 3.0427101,3.0427101 0 0 0 3.04297,3.04297 3.0427101,3.0427101 0 0 0 3.04297,-3.04297 v -5 a 3.0430143,3.0430143 0 0 0 -1.52148,-2.63477 l -4.33008,-2.5 -8.66016,-5 a 3.0430143,3.0430143 0 0 0 -4.56445,2.63477 v 15 a 3.0430143,3.0430143 0 0 0 1.52148,2.63477 l 21.65039,12.5 a 3.0430143,3.0430143 0 0 0 4.56446,-2.63477 v -25 a 3.0430143,3.0430143 0 0 0 -1.52149,-2.63477 l -17.08594,-9.86523 12.52149,-7.23047 v 2.97461 l -2.8086,1.62109 a 3.0427101,3.0427101 0 0 0 -1.11328,4.15625 3.0427101,3.0427101 0 0 0 4.15625,1.11329 l 4.33008,-2.5 a 3.0430143,3.0430143 0 0 0 1.52149,-2.63477 v -10 a 3.0430143,3.0430143 0 0 0 -4.56446,-2.63477 z"
           id="path3102" />
      </g>
      <path
         id="text10607"
         style="font-style:normal;font-variant:normal;font-weight:600;font-stretch:semi-condensed;font-size:53.8832px;line-height:1.25;font-family:'Saira SemiCondensed';-inkscape-font-specification:'Saira SemiCondensed, Semi-Bold Semi-Condensed';font-variant-ligatures:normal;font-variant-caps:normal;font-variant-numeric:normal;font-variant-east-asian:normal;font-variation-settings:normal;letter-spacing:1.53883px;opacity:1;vector-effect:none;fill:#8694c5;fill-opacity:1;stroke:#e0e3ef;stroke-width:16;stroke-linecap:round;stroke-linejoin:round;stroke-miterlimit:4;stroke-dasharray:none;stroke-dashoffset:0;stroke-opacity:1;-inkscape-stroke:none;paint-order:stroke fill markers;stop-color:#000000;stop-opacity:1"
         d="m 333.26367,70.046875 c -10.45419,0 -19.0768,1.018157 -25.86523,3.054687 -6.78844,2.036531 -12.1506,6.176515 -16.08789,12.421876 -3.9373,6.24536 -5.90625,15.274062 -5.90625,27.085942 0,12.21918 1.83229,21.58857 5.49804,28.10546 3.66576,6.5169 10.65815,10.52217 20.97657,12.01563 l 22.60547,3.25781 c 4.07306,0.67884 6.92546,1.42562 8.55468,2.24024 1.765,0.81461 2.91787,2.1715 3.46094,4.07226 0.54307,1.76499 0.81445,4.81947 0.81445,9.16406 0,3.25845 -0.20207,5.77017 -0.60937,7.53516 -0.27154,1.76499 -1.01832,3.25855 -2.24024,4.48047 -1.35768,1.35769 -3.59802,2.30849 -6.7207,2.85156 -3.12268,0.54308 -7.46864,0.81445 -13.03516,0.81445 -7.05997,0 -19.00647,-0.67746 -35.84179,-2.03515 v 24.8457 c 13.03379,2.30807 28.03672,3.46094 45.00781,3.46094 10.18265,0 18.39526,-1.01816 24.64062,-3.05469 6.38113,-2.03653 11.40456,-6.38054 15.07032,-13.0332 3.66575,-6.65267 5.5,-16.4955 5.5,-29.5293 0,-11.13303 -1.4262,-19.68829 -4.27735,-25.66211 -2.30806,-4.61613 -5.29518,-7.87267 -8.96093,-9.77344 -3.52999,-1.90076 -8.01066,-3.2596 -13.44141,-4.07421 l -24.23437,-3.46094 c -3.52999,-0.54308 -6.04171,-1.15514 -7.53516,-1.83399 -1.35769,-0.81461 -2.24113,-2.03679 -2.64844,-3.66601 -0.4073,-1.62923 -0.60937,-4.41232 -0.60937,-8.34961 0,-3.52999 0.20207,-6.10906 0.60937,-7.73828 0.40731,-1.765 1.42742,-3.12384 3.05664,-4.074221 2.85114,-1.900762 9.29882,-2.84961 19.3457,-2.84961 9.50381,0 20.36481,0.746779 32.58399,2.240235 V 74.119141 C 359.39774,71.403767 346.1617,70.046875 333.26367,70.046875 Z m 121.89844,0 c -16.97109,0 -29.12357,2.10367 -36.45508,6.3125 -7.19574,4.073061 -11.74377,10.726713 -13.64453,19.958984 -1.76499,9.096501 -2.64844,24.234151 -2.64844,45.414061 0,21.17992 0.88345,36.38687 2.64844,45.61914 1.90076,9.09651 6.44879,15.7482 13.64453,19.95703 7.33151,4.07306 19.48399,6.10938 36.45508,6.10938 17.10686,0 29.25738,-2.03632 36.45312,-6.10938 7.33151,-4.20883 11.87954,-10.86052 13.64454,-19.95703 1.76499,-9.0965 2.64843,-24.30345 2.64843,-45.61914 0,-21.31568 -0.88344,-36.52264 -2.64843,-45.619139 -1.765,-9.096502 -6.31303,-15.680845 -13.64454,-19.753906 -7.19574,-4.20883 -19.34626,-6.3125 -36.45312,-6.3125 z m 611.38869,0 c -15.6134,0 -27.3579,2.036314 -35.2324,6.109375 -7.7389,4.073061 -13.101,11.132804 -16.0879,21.179688 -2.9869,10.046882 -4.4805,24.845792 -4.4805,44.396482 0,20.50108 1.4262,35.70803 4.2773,45.61914 2.987,9.91112 8.2125,16.76684 15.6797,20.56836 7.6031,3.66576 19.2128,5.49805 34.8262,5.49805 6.6527,0 13.9164,-0.4754 21.791,-1.42578 8.0104,-0.81461 15.0028,-1.90013 20.9766,-3.25781 v -78.40626 h -45.8223 v 25.04883 h 16.291 v 31.97461 c -4.8876,0.27154 -8.9603,0.40625 -12.2187,0.40625 -7.4673,0 -12.8295,-1.08551 -16.0879,-3.25781 -3.1227,-2.1723 -5.2283,-6.31424 -6.3145,-12.42383 -0.9503,-6.10959 -1.4257,-16.2238 -1.4257,-30.34375 0,-15.47763 0.7467,-26.13655 2.2402,-31.97461 1.4934,-5.97382 4.3458,-9.70576 8.5547,-11.199216 4.2088,-1.493456 12.0827,-2.240235 23.623,-2.240235 6.2454,0 16.4289,0.881492 30.5489,2.646485 v -24.4375 c -3.8016,-0.950381 -9.7084,-1.901182 -17.7188,-2.851563 -8.0103,-1.086149 -15.8169,-1.628906 -23.4199,-1.628906 z M 535.92188,71.675781 V 211.78906 h 29.73242 v -96.93945 h 1.42578 l 25.2539,96.93945 h 24.84571 l 25.45508,-96.93945 h 1.42578 v 96.93945 h 30.54883 V 71.675781 h -45.00782 l -23.41992,89.810549 h -1.42578 L 581.33594,71.675781 Z m 170.16406,0 V 211.78906 h 84.3125 v -26.27148 h -52.7461 V 154.1543 h 45.21094 V 127.88477 H 737.65234 V 97.947266 h 52.7461 V 71.675781 Z m 117.89062,0 V 211.78906 h 43.99024 c 17.64993,0 30.2085,-2.03631 37.67578,-6.10937 7.60305,-4.07306 12.28579,-10.59005 14.05078,-19.55078 1.90076,-8.96074 2.85156,-23.75965 2.85156,-44.39649 0,-20.63684 -0.9508,-35.43575 -2.85156,-44.396482 -1.76499,-8.960735 -6.44773,-15.477721 -14.05078,-19.550782 -7.46728,-4.073061 -20.02585,-6.109375 -37.67578,-6.109375 z m 126.99024,0 V 211.78906 h 31.76953 V 71.675781 Z m 187.5879,0 V 211.78906 h 31.7695 V 71.675781 Z m 52.8594,0 v 27.289063 h 32.9902 V 211.78906 h 31.7715 V 98.964844 h 33.1953 V 71.675781 Z M 455.16211,96.318359 c 7.33151,0 12.21827,0.746779 14.66211,2.240235 2.5796,1.493456 4.20787,5.023326 4.88672,10.589846 0.67884,5.56651 1.01953,16.42751 1.01953,32.58398 0,16.15648 -0.34069,27.01747 -1.01953,32.58399 -0.67885,5.56651 -2.30712,9.09638 -4.88672,10.58984 -2.44384,1.49346 -7.3306,2.24023 -14.66211,2.24023 -7.33151,0 -12.28758,-0.74677 -14.86719,-2.24023 -2.44383,-1.49346 -4.00475,-5.02333 -4.68359,-10.58984 -0.67885,-5.56652 -1.01953,-16.42751 -1.01953,-32.58399 0,-16.15647 0.34068,-27.01747 1.01953,-32.58398 0.67884,-5.56652 2.23976,-9.09639 4.68359,-10.589846 2.57961,-1.493456 7.53568,-2.240235 14.86719,-2.240235 z m 400.38086,1.628907 h 11.60742 c 8.41766,0 13.9858,0.679422 16.70117,2.037109 2.85115,1.357685 4.68344,4.750895 5.49805,10.181645 0.81461,5.29497 1.22266,15.81723 1.22266,31.5664 0,15.74917 -0.40805,26.33879 -1.22266,31.76953 -0.67884,5.29498 -2.44378,8.62083 -5.29492,9.97852 -2.85115,1.35769 -8.48664,2.03711 -16.9043,2.03711 h -11.60742 z"
         transform="matrix(0.26458333,0,0,0.26458333,112.58333,160)" />
      <text
         xml:space="preserve"
         style="font-style:normal;font-variant:normal;font-weight:600;font-stretch:semi-condensed;font-size:53.8832px;line-height:1.25;font-family:'Saira SemiCondensed';-inkscape-font-specification:'Saira SemiCondensed, Semi-Bold Semi-Condensed';font-variant-ligatures:normal;font-variant-caps:normal;font-variant-numeric:normal;font-variant-east-asian:normal;letter-spacing:1.53883px;fill:#1b3181;fill-opacity:1;stroke:none;stroke-width:0.307765"
         x="186.04909"
         y="216.03583"
         id="text1376"><tspan
           sodipodi:role="line"
           id="tspan1374"
           style="font-style:normal;font-variant:normal;font-weight:bold;font-stretch:semi-condensed;font-size:53.8832px;font-family:'Saira SemiCondensed';-inkscape-font-specification:'Saira SemiCondensed, Bold Semi-Condensed';font-variant-ligatures:normal;font-variant-caps:normal;font-variant-numeric:normal;font-variant-east-asian:normal;fill:#1b3181;fill-opacity:1;stroke-width:0.307765"
           x="186.04909"
           y="216.03583">SOME</tspan></text>
      <text
         xml:space="preserve"
         style="font-style:normal;font-variant:normal;font-weight:600;font-stretch:semi-condensed;font-size:53.8832px;line-height:1.25;font-family:'Saira SemiCondensed';-inkscape-font-specification:'Saira SemiCondensed, Semi-Bold Semi-Condensed';font-variant-ligatures:normal;font-variant-caps:normal;font-variant-numeric:normal;font-variant-east-asian:normal;letter-spacing:1.53883px;fill:#8694c5;fill-opacity:1;stroke:none;stroke-width:0.307765"
         x="327.14536"
         y="216.03583"
         id="text44446"><tspan
           sodipodi:role="line"
           id="tspan44444"
           style="font-style:normal;font-variant:normal;font-weight:bold;font-stretch:semi-condensed;font-size:53.8832px;font-family:'Saira SemiCondensed';-inkscape-font-specification:'Saira SemiCondensed, Bold Semi-Condensed';font-variant-ligatures:normal;font-variant-caps:normal;font-variant-numeric:normal;font-variant-east-asian:normal;fill:#8694c5;fill-opacity:1;stroke-width:0.307765"
           x="327.14536"
           y="216.03583">DIGIT</tspan></text>
    </g>
  </g>
</svg>
