<svg width="145" height="95" version="1.1" viewBox="0 0 38.365 25.135" xmlns="http://www.w3.org/2000/svg">
<g transform="translate(-112.58 -160)">
<g transform="matrix(1.2586 0 0 1.2586 -39.033 -45.546)">
<path d="m122.8 175.66 2.0424-1.1792v-2.3583l-2.0424-1.1792m0.81694 1.415 0.40848 0.23583v1.415l-0.40848 0.23583" fill="none" stop-color="#000000" stroke="#8694c5" stroke-linecap="round" stroke-linejoin="round" stroke-width=".57406" style="font-variation-settings:normal;paint-order:stroke fill markers"/>
<g fill="#1b3181" stroke-width=".024959">
<path d="m127.28 174.82q-0.54622 0-0.96572-0.0743v-0.53311q0.54185 0.0437 0.76908 0.0437 0.17916 0 0.27967-0.0175 0.1005-0.0175 0.1442-0.0612 0.0393-0.0393 0.0481-0.0961 0.0131-0.0568 0.0131-0.16168 0-0.13983-0.0175-0.19664-0.0175-0.0612-0.0743-0.0874-0.0524-0.0262-0.18353-0.0481l-0.48504-0.0699q-0.33211-0.0481-0.45009-0.25781-0.11798-0.20975-0.11798-0.60303 0-0.38017 0.12672-0.58118t0.34521-0.26656q0.21849-0.0655 0.55496-0.0655 0.41513 0 0.85211 0.0874v0.52438q-0.39328-0.0481-0.69917-0.0481-0.32336 0-0.41512 0.0612-0.0524 0.0306-0.0656 0.0874-0.0131 0.0524-0.0131 0.16605 0 0.12672 0.0131 0.17916 0.0131 0.0524 0.0568 0.0787 0.0481 0.0219 0.16168 0.0393l0.52 0.0743q0.17479 0.0262 0.2884 0.0874 0.11799 0.0612 0.19227 0.20975 0.0918 0.19227 0.0918 0.55059 0 0.41949-0.11798 0.63361-0.11799 0.21412-0.32337 0.27967-0.20101 0.0655-0.52874 0.0655z"/>
<path d="m130.31 174.82q-0.54622 0-0.78219-0.13109-0.2316-0.13546-0.29278-0.42824-0.0568-0.29714-0.0568-0.97882 0-0.68169 0.0568-0.97446 0.0612-0.29715 0.29278-0.42824 0.23597-0.13546 0.78219-0.13546 0.55059 0 0.78219 0.13546 0.23596 0.13109 0.29277 0.42387 0.0568 0.29277 0.0568 0.97883 0 0.68605-0.0568 0.97882-0.0568 0.29278-0.29277 0.42824-0.2316 0.13109-0.78219 0.13109zm0-0.56369q0.23597 0 0.31462-0.0481 0.083-0.0481 0.10488-0.22723 0.0218-0.17916 0.0218-0.69916 0-0.52001-0.0218-0.69917-0.0219-0.17916-0.10488-0.22722-0.0787-0.0481-0.31462-0.0481-0.23597 0-0.319 0.0481-0.0787 0.0481-0.1005 0.22722-0.0219 0.17916-0.0219 0.69917 0 0.52 0.0219 0.69916t0.1005 0.22723q0.083 0.0481 0.319 0.0481z"/>
<path d="m134.78 174.78v-2.08h-0.0306l-0.54622 2.08h-0.53311l-0.54185-2.08h-0.0306v2.08h-0.63799v-3.0064h0.97446l0.50253 1.9271h0.0306l0.50252-1.9271h0.96572v3.0064z"/>
<path d="m136.53 174.78v-3.0064h1.8091v0.5637h-1.1318v0.64235h0.97009v0.5637h-0.97009v0.67295h1.1318v0.5637z"/>
</g>
<path d="m122.39 172.12 0.40848-0.23583v-0.94333l-2.0424 1.1792 2.0424 1.1792v2.3583l-2.0424-1.1792v-1.415l0.81695 0.47166 0.40847 0.23583v0.47167" fill-opacity="0" stop-color="#000000" stroke="#2d3f7f" stroke-linecap="round" stroke-linejoin="round" stroke-width=".57406" style="font-variation-settings:normal;paint-order:stroke fill markers"/>
<g fill="#8694c5" stroke-width=".024959">
<path d="m139.28 171.78h0.94387q0.56807 0 0.8084 0.13109 0.24471 0.13109 0.30152 0.4195 0.0612 0.2884 0.0612 0.95261 0 0.6642-0.0612 0.95261-0.0568 0.2884-0.30152 0.41949-0.24033 0.1311-0.8084 0.1311h-0.94387zm0.92639 2.4427q0.27092 0 0.36269-0.0437 0.0918-0.0437 0.11361-0.21412 0.0262-0.17479 0.0262-0.68168 0-0.5069-0.0262-0.67732-0.0262-0.17479-0.11798-0.21849-0.0874-0.0437-0.35832-0.0437h-0.24908v1.879z"/>
<path d="m142.42 174.78v-3.0064h0.68168v3.0064z"/>
<path d="m145.24 173.57v-0.53748h0.9832v1.6824q-0.19227 0.0437-0.45008 0.0699-0.25345 0.0306-0.46757 0.0306-0.50252 0-0.74723-0.11798-0.24034-0.12235-0.33647-0.44135-0.0918-0.31899-0.0918-0.97882 0-0.62925 0.0961-0.95261 0.0961-0.32337 0.34521-0.45446 0.25345-0.13109 0.75597-0.13109 0.24471 0 0.50252 0.035 0.25782 0.0306 0.38017 0.0612v0.52437q-0.45445-0.0568-0.65546-0.0568-0.37143 0-0.5069 0.0481-0.13546 0.0481-0.18353 0.24033-0.0481 0.1879-0.0481 0.68606 0 0.45445 0.0306 0.65109 0.035 0.19664 0.13547 0.26656 0.10487 0.0699 0.34521 0.0699 0.10487 0 0.26219-9e-3v-0.68605z"/>
<path d="m147.29 174.78v-3.0064h0.68168v3.0064z"/>
<path d="m149.55 174.78v-2.4209h-0.70791v-0.58554h2.1019v0.58554h-0.71227v2.4209z"/>
</g>
</g>
</g>
</svg>
