<?xml version="1.0" encoding="UTF-8" standalone="no"?>
<svg
   width="410.1521"
   height="66.1157"
   version="1"
   id="svg12"
   sodipodi:docname="logo_horizontal.svg"
   inkscape:export-filename="logo_horizontal.png"
   inkscape:export-xdpi="96"
   inkscape:export-ydpi="96"
   inkscape:version="1.1.1 (3bf5ae0d25, 2021-09-20)"
   xmlns:inkscape="http://www.inkscape.org/namespaces/inkscape"
   xmlns:sodipodi="http://sodipodi.sourceforge.net/DTD/sodipodi-0.dtd"
   xmlns="http://www.w3.org/2000/svg"
   xmlns:svg="http://www.w3.org/2000/svg">
  <sodipodi:namedview
     id="namedview13"
     pagecolor="#ffffff"
     bordercolor="#666666"
     borderopacity="1.0"
     inkscape:pageshadow="2"
     inkscape:pageopacity="0.0"
     inkscape:pagecheckerboard="0"
     showgrid="false"
     inkscape:snap-page="true"
     inkscape:snap-global="false"
     inkscape:zoom="1.4994437"
     inkscape:cx="208.41063"
     inkscape:cy="35.346442"
     inkscape:window-width="1366"
     inkscape:window-height="703"
     inkscape:window-x="0"
     inkscape:window-y="0"
     inkscape:window-maximized="1"
     inkscape:current-layer="svg12" />
  <defs
     id="defs16" />
  <g
     id="layer2">
    <rect
       style="font-variation-settings:normal;opacity:1;vector-effect:none;fill:#000000;fill-opacity:0.2;stroke-width:1;stroke-linecap:butt;stroke-linejoin:miter;stroke-miterlimit:4;stroke-dasharray:none;stroke-dashoffset:0;stroke-opacity:1;-inkscape-stroke:none;stop-color:#000000;stop-opacity:1"
       width="56"
       height="56"
       x="3.9997783"
       y="5.0001831"
       rx="2.8"
       ry="2.8"
       id="rect28957" />
    <rect
       style="fill:#60a5fa;fill-opacity:1;stroke:none;stroke-width:23.3575;stroke-linecap:round;stop-color:#000000"
       id="rect24605"
       width="56"
       height="56"
       x="4.0002208"
       y="3.9998174"
       ry="2.8"
       rx="2.8" />
    <rect
       style="fill:#1d4ed8;fill-opacity:1;stroke:none;stroke-width:23.3575;stroke-linecap:round;stop-color:#000000"
       id="rect25882"
       width="56"
       height="27.191669"
       x="4.0002208"
       y="32.808147"
       ry="2.8"
       rx="2.8" />
    <path
       style="opacity:1;fill:#ffffff;fill-opacity:0.2"
       d="m 6.801001,3.9998174 c -1.5512,0 -2.800781,1.2495812 -2.800781,2.8007812 v 1 c 0,-1.5511999 1.249581,-2.8007812 2.800781,-2.8007812 h 50.398441 c 1.5512,0 2.80078,1.2495812 2.80078,2.8007812 v -1 c 0,-1.5511999 -1.24958,-2.8007812 -2.80078,-2.8007812 z"
       id="path10-6" />
    <path
       id="path146"
       style="fill:#2563eb;fill-opacity:1;fill-rule:evenodd;stroke-width:0.0830422px;paint-order:stroke fill markers;stop-color:#000000"
       d="m 19.736553,34.508355 c -0.335527,0.0054 -0.669988,0.01681 -1.001953,0.03516 -0.663933,0.0367 -1.319935,0.09865 -1.96875,0.183594 -0.648813,0.08494 -1.291381,0.193616 -1.923829,0.322265 -0.632447,0.128649 -1.256263,0.277486 -1.871093,0.445313 -0.61483,0.167826 -1.220443,0.354167 -1.816407,0.556641 -0.595963,0.202473 -1.181966,0.419752 -1.757812,0.652343 -0.575847,0.23259 -1.140833,0.480105 -1.695313,0.738281 -0.55448,0.258176 -1.097043,0.527408 -1.628906,0.806641 -0.531864,0.279232 -1.05255,0.567523 -1.560547,0.863281 -0.174459,0.101571 -0.340173,0.209338 -0.511718,0.3125 v 5.5625 c 0.375939,-0.139175 0.774494,-0.276409 1.199218,-0.40625 0.444568,-0.135909 0.915396,-0.264768 1.410157,-0.380859 0.494761,-0.116092 1.013059,-0.220173 1.554687,-0.306641 0.541628,-0.08647 1.106241,-0.156087 1.691406,-0.203125 0.585165,-0.04704 1.191035,-0.07056 1.816407,-0.06836 0.625371,0.0022 1.271341,0.03055 1.933593,0.0918 0.66225,0.06125 1.341308,0.155052 2.03711,0.285156 0.695802,0.130104 1.40679,0.297092 2.132812,0.505859 0.363011,0.104385 0.729669,0.219815 1.09961,0.345704 0.369945,0.125887 0.744639,0.261538 1.121093,0.410156 0.376459,0.148619 0.754165,0.309847 1.136719,0.482422 0.382558,0.172575 0.768007,0.35693 1.15625,0.554687 0.38824,0.197758 0.764123,0.406122 1.125,0.623047 0.360881,0.216927 0.706517,0.443276 1.041016,0.677734 0.334498,0.234458 0.657694,0.476206 0.966797,0.726563 0.309101,0.250357 0.605935,0.508818 0.890625,0.773437 0.284689,0.26462 0.557106,0.535253 0.818359,0.8125 0.261257,0.277246 0.51119,0.55942 0.75,0.847657 0.238809,0.288238 0.466252,0.583266 0.683594,0.880859 0.217341,0.297594 0.424235,0.598982 0.621093,0.904297 0.196857,0.305314 0.383189,0.614382 0.560547,0.925781 0.177353,0.311401 0.345073,0.625555 0.503907,0.941406 0.317678,0.631701 0.600117,1.270469 0.849607,1.910157 0.2495,0.639689 0.46512,1.279468 0.6543,1.914062 0.17752,0.595515 0.32786,1.185763 0.45898,1.765625 h 24.98829 c 1.5512,0 2.79882,-1.249581 2.79882,-2.800781 v -1.392578 c -1.5794,-0.650969 -3.16336,-1.49426 -3.70898,-1.794922 -0.96472,-0.531606 -1.97987,-1.11738 -3.04492,-1.761719 -1.06506,-0.644338 -2.18016,-1.347428 -3.34766,-2.115234 -1.1675,-0.767805 -2.38614,-1.599947 -3.6582,-2.501953 -1.27205,-0.902007 -2.59785,-1.874933 -3.97656,-2.921875 -1.37871,-1.046942 -2.80941,-2.168482 -4.29688,-3.371094 -0.74374,-0.601306 -1.48668,-1.157628 -2.22656,-1.669922 -0.73987,-0.512295 -1.47813,-0.980389 -2.21289,-1.408203 -0.73475,-0.427813 -1.46692,-0.814245 -2.19531,-1.162109 -0.728387,-0.347863 -1.453063,-0.657245 -2.173835,-0.929688 -0.720763,-0.272443 -1.436539,-0.509382 -2.148438,-0.710937 -0.7119,-0.201553 -1.419308,-0.368713 -2.121093,-0.503907 -0.701784,-0.135193 -1.39943,-0.237182 -2.089844,-0.310546 -0.690418,-0.07336 -1.37298,-0.118701 -2.050781,-0.134766 -0.3389,-0.008 -0.676196,-0.0075 -1.011719,-0.002 z" />
    <path
       id="path148"
       style="fill:#3b82f6;fill-opacity:1;fill-rule:evenodd;stroke-width:0.0830422px;paint-order:stroke fill markers;stop-color:#000000"
       d="m 23.99447,18.223683 c -0.747088,0.0066 -1.479471,0.03391 -2.1969,0.08032 -0.71743,0.04641 -1.420185,0.111771 -2.108031,0.194824 -0.687846,0.08305 -1.360825,0.184297 -2.019161,0.300781 -0.658337,0.116484 -1.301396,0.248922 -1.930297,0.39563 -0.628898,0.146708 -1.243602,0.307355 -1.843138,0.481078 -0.599536,0.173724 -1.184024,0.360452 -1.754271,0.557983 -0.570248,0.197531 -1.12608,0.40565 -1.667113,0.623779 -0.541033,0.218131 -1.067208,0.446362 -1.5791,0.681884 -0.511892,0.235522 -1.009117,0.478321 -1.491942,0.728027 -0.482826,0.249705 -0.951807,0.505798 -1.405639,0.766479 -0.453833,0.26068 -0.892712,0.526229 -1.317626,0.794677 -0.234984,0.148457 -0.454871,0.299393 -0.681029,0.449463 V 39.424469 C 4.171768,39.321307 4.335894,39.214151 4.510354,39.11258 5.01835,38.816822 5.538792,38.528775 6.070656,38.249543 6.602519,37.97031 7.14569,37.700225 7.700171,37.442049 c 0.55448,-0.258176 1.120318,-0.504836 1.696165,-0.737426 0.575847,-0.232591 1.161725,-0.451212 1.757689,-0.653686 0.595964,-0.202474 1.201819,-0.388448 1.816649,-0.556274 0.614831,-0.167827 1.238889,-0.317396 1.871337,-0.446045 0.632448,-0.128649 1.273795,-0.236347 1.922607,-0.321289 0.648816,-0.08494 1.304816,-0.147012 1.968748,-0.183715 0.663932,-0.0367 1.33538,-0.04854 2.013181,-0.03247 0.3389,0.008 0.679021,0.02314 1.021115,0.04529 0.342436,0.0221 0.685877,0.0513 1.031375,0.08801 0.690414,0.07336 1.387447,0.176696 2.089231,0.311889 0.350893,0.0676 0.702647,0.143404 1.056151,0.227295 2.71e-4,6.5e-5 4.37e-4,-6.5e-5 8.75e-4,0 0.353237,0.08384 0.708159,0.176154 1.063841,0.276855 0.35595,0.100777 0.712447,0.209907 1.07068,0.328125 2.63e-4,8.6e-5 4.38e-4,-8.6e-5 8.75e-4,0 0.35798,0.118147 0.717386,0.244977 1.077514,0.381103 0.720772,0.272443 1.445442,0.581824 2.173828,0.929687 0.72838,0.347864 1.46044,0.734295 2.19519,1.162108 0.73475,0.427814 1.47241,0.896762 2.21228,1.409057 0.73987,0.512294 1.48221,1.06837 2.22595,1.669676 1.48747,1.202612 2.91938,2.324881 4.29809,3.371823 1.37871,1.046942 2.70389,2.018645 3.97595,2.920652 1.27205,0.902006 2.49143,1.734146 3.65893,2.501951 1.1675,0.767806 2.28284,1.471383 3.3479,2.115721 1.06505,0.644339 2.07984,1.229501 3.04455,1.761107 0.54562,0.300662 2.12995,1.145172 3.70935,1.796141 V 49.513452 23.993209 c -0.0149,5.25e-4 -0.0287,0.002 -0.0436,0.0026 -0.62688,0.02385 -1.26993,0.03449 -1.9286,0.03162 -0.65866,-0.0029 -1.3326,-0.01937 -2.02343,-0.05127 -0.69083,-0.0319 -1.39833,-0.0786 -2.1217,-0.141845 -0.72338,-0.06325 -1.46281,-0.143208 -2.21912,-0.240112 -0.7563,-0.0969 -1.52948,-0.211486 -2.31908,-0.344361 -0.78961,-0.132873 -1.59579,-0.284286 -2.41907,-0.455444 -0.82328,-0.171158 -1.66341,-0.361608 -2.52075,-0.573363 -0.85734,-0.211755 -1.73237,-0.444309 -2.62415,-0.698974 -0.89177,-0.254666 -1.80009,-0.531533 -2.72668,-0.83142 -0.92659,-0.299889 -1.83874,-0.569266 -2.73522,-0.810059 -0.89649,-0.240792 -1.77735,-0.4534 -2.6438,-0.638305 -0.86646,-0.184903 -1.71843,-0.342018 -2.55493,-0.474242 -0.836503,-0.132226 -1.657734,-0.23939 -2.464356,-0.322144 -0.806627,-0.08275 -1.598663,-0.141244 -2.375483,-0.177734 -0.77682,-0.03649 -1.538678,-0.051 -2.285765,-0.04443 z" />
    <path
       id="path42840"
       style="font-variation-settings:normal;opacity:1;vector-effect:none;fill:#000000;fill-opacity:0.2;stroke:none;stroke-width:1.631;stroke-linecap:butt;stroke-linejoin:miter;stroke-miterlimit:4;stroke-dasharray:none;stroke-dashoffset:0;stroke-opacity:1;-inkscape-stroke:none;stop-color:#000000;stop-opacity:1"
       d="m 14.704529,21.131878 10.736005,5.99444 h 22.066171 v 3.227551 H 31.223717 l 10.736041,5.994441 h 5.546981 v 3.096981 l 5.994443,3.346384 V 26.542427 h 0.0015 v -5.410549 z m -1.013745,2.778627 -0.0015,21.659797 H 52.487397 L 41.749925,39.57586 h -2.0759 -0.0015 -19.987341 V 27.256889 Z" />
    <path
       id="path31"
       style="fill:#ffffff;fill-opacity:1;stroke-width:2.839"
       d="m 13.025841,19.656468 10.736005,5.99444 h 22.066171 v 3.227551 H 29.545029 L 40.28107,34.8729 h 5.546981 v 3.096981 l 5.994443,3.346384 V 25.067017 h 0.0015 v -5.410549 z m -1.013745,2.778627 -0.0015,21.659797 H 50.808709 L 40.071237,38.10045 h -2.0759 -0.0015 -19.987341 V 25.781479 Z" />
  </g>
  <text
     xml:space="preserve"
     style="font-style:normal;font-variant:normal;font-weight:normal;font-stretch:normal;font-size:44.5881px;line-height:1.25;font-family:Montserrat;-inkscape-font-specification:'Montserrat, @wght=800';font-variant-ligatures:normal;font-variant-caps:normal;font-variant-numeric:normal;font-variant-east-asian:normal;font-variation-settings:'wght' 800;letter-spacing:0px;word-spacing:0px;opacity:1;vector-effect:none;fill:#60a5fa;fill-opacity:1;stroke:none;stroke-width:0.932232;stroke-linecap:round;stroke-linejoin:round;stroke-miterlimit:4;stroke-dasharray:none;stroke-dashoffset:0;stroke-opacity:1;-inkscape-stroke:none;paint-order:stroke fill markers;stop-color:#000000;stop-opacity:1"
     x="68.450645"
     y="47.522373"
     id="text1894"><tspan
       sodipodi:role="line"
       id="tspan1892"
       x="68.450645"
       y="47.522373"
       style="font-style:normal;font-variant:normal;font-weight:normal;font-stretch:normal;font-size:44.58810043px;font-family:Montserrat;-inkscape-font-specification:'Montserrat, @wght=800';font-variant-ligatures:normal;font-variant-caps:normal;font-variant-numeric:normal;font-variant-east-asian:normal;font-variation-settings:'wght' 800;vector-effect:none;fill:#60a5fa;fill-opacity:1;stroke:none;stroke-width:0.932232;stroke-linecap:round;stroke-linejoin:round;stroke-miterlimit:4;stroke-dasharray:none;stroke-dashoffset:0;stroke-opacity:1;-inkscape-stroke:none;paint-order:stroke fill markers;stop-color:#000000;stop-opacity:1">LangitKetujuh</tspan></text>
  <path
     id="text2768"
     style="font-style:normal;font-variant:normal;font-weight:normal;font-stretch:normal;font-size:44.5881px;line-height:1.25;font-family:Montserrat;-inkscape-font-specification:'Montserrat, @wght=800';font-variant-ligatures:normal;font-variant-caps:normal;font-variant-numeric:normal;font-variant-east-asian:normal;font-variation-settings:'wght' 800;letter-spacing:0px;word-spacing:0px;opacity:1;vector-effect:none;fill:#3b82f6;fill-opacity:1;stroke:none;stroke-width:0.932232;stroke-linecap:round;stroke-linejoin:round;stroke-miterlimit:4;stroke-dasharray:none;stroke-dashoffset:0;stroke-opacity:1;-inkscape-stroke:none;paint-order:stroke fill markers;stop-color:#000000;stop-opacity:1"
     d="M 71.572266 16.310547 L 71.572266 30.238281 L 80.400391 30.601562 L 80.400391 16.310547 L 71.572266 16.310547 z M 189.56445 18.875 C 189.70279 19.040257 189.77527 19.234387 189.94336 19.386719 C 190.89457 20.248755 192.14373 20.679688 193.68945 20.679688 C 195.21293 20.679688 196.42394 20.267034 197.33594 19.460938 L 189.56445 18.875 z M 204.39062 19.994141 L 204.39062 24.248047 L 200.86719 24.248047 L 200.86719 30.578125 L 204.39062 30.578125 L 204.39062 35.683594 L 212.86133 36.03125 L 212.86133 30.578125 L 218.39062 30.578125 L 218.39062 24.248047 L 212.86133 24.248047 L 212.86133 20.632812 L 204.39062 19.994141 z M 223.74219 21.453125 L 223.74219 36.476562 L 235.06055 36.941406 L 235.75781 36.193359 L 236.39062 36.996094 L 247.18359 37.4375 L 241.54102 30.115234 L 247.85742 23.273438 L 238.71875 22.583984 L 232.48047 29.277344 L 232.48047 22.113281 L 223.74219 21.453125 z M 108.97656 22.955078 C 107.07414 22.955078 105.15676 23.207559 103.22461 23.712891 C 101.32218 24.188497 99.687681 24.87191 98.320312 25.763672 L 101.14258 31.451172 L 101.17383 31.515625 C 101.202 31.493492 101.239 31.478824 101.26758 31.457031 C 102.08338 30.834925 103.0563 30.344632 104.20508 30 C 105.39409 29.61357 106.56923 29.419922 107.72852 29.419922 C 109.51204 29.419922 110.80484 29.792021 111.60742 30.535156 C 112.0428 30.908334 112.34901 31.37594 112.55664 31.919922 L 121.18945 32.273438 C 120.88283 29.381739 119.87266 27.153604 118.07227 25.673828 C 115.93204 23.860579 112.90032 22.955078 108.97656 22.955078 z M 142.41797 22.955078 C 140.39664 22.955078 138.58369 23.399254 136.97852 24.291016 C 136.14052 24.741052 135.39971 25.320588 134.74805 26.013672 L 134.74805 23.355469 L 126.67773 23.355469 L 126.67773 32.498047 L 135.68164 32.867188 C 135.71838 32.780884 135.73271 32.667399 135.77344 32.585938 C 136.18959 31.753626 136.77054 31.144244 137.51367 30.757812 C 138.25681 30.341658 139.07308 30.132814 139.96484 30.132812 C 141.21331 30.132813 142.1796 30.533352 142.86328 31.335938 C 143.275 31.78197 143.53292 32.434417 143.70703 33.197266 L 152.39258 33.552734 C 152.37378 31.129006 151.94091 29.133308 151.06836 27.591797 C 150.20632 26.016351 149.016 24.856416 147.5 24.113281 C 145.984 23.340421 144.29067 22.955078 142.41797 22.955078 z M 168.36328 22.955078 C 166.22305 22.955078 164.24684 23.429647 162.43359 24.380859 C 160.65007 25.332072 159.20726 26.685655 158.10742 28.439453 C 157.17229 29.946055 156.67264 31.716669 156.55469 33.722656 L 165.12695 34.074219 C 165.19479 33.313053 165.36999 32.609907 165.73242 32.005859 C 166.20803 31.262724 166.8478 30.696977 167.65039 30.310547 C 168.45298 29.894391 169.35848 29.6875 170.36914 29.6875 C 171.3798 29.6875 172.27206 29.894391 173.04492 30.310547 C 173.84751 30.696977 174.47209 31.262724 174.91797 32.005859 C 175.37845 32.725363 175.6045 33.561482 175.61914 34.503906 L 184.01367 34.849609 L 184.01367 23.355469 L 175.94336 23.355469 L 175.94336 26.296875 C 175.30781 25.421705 174.54544 24.710307 173.625 24.203125 C 172.16846 23.370814 170.41433 22.955078 168.36328 22.955078 z M 189.45312 23.355469 L 189.45312 35.072266 L 197.92578 35.419922 L 197.92578 23.355469 L 189.45312 23.355469 z M 261.46094 24.300781 C 261.27094 24.390047 261.07244 24.460269 260.88672 24.558594 C 258.86539 25.598983 257.27452 27.072184 256.11523 28.974609 C 254.98567 30.84731 254.42188 32.986774 254.42188 35.394531 C 254.42188 36.210488 254.51139 36.986218 254.64453 37.744141 L 263.16602 38.09375 C 263.1008 37.923033 263.02225 37.761541 262.97266 37.580078 L 280.50586 37.580078 C 280.53558 37.253099 280.56598 36.896196 280.5957 36.509766 C 280.62543 36.123335 280.63867 35.781629 280.63867 35.484375 C 280.63867 32.809089 280.05968 30.53481 278.90039 28.662109 C 278.07785 27.333382 277.04296 26.249727 275.81641 25.384766 L 261.46094 24.300781 z M 282.02148 25.851562 L 282.02148 30.578125 L 285.54492 30.578125 L 285.54492 38.693359 C 285.54492 38.806545 285.56605 38.900605 285.56836 39.011719 L 294.13281 39.363281 C 294.08189 39.119407 294.01562 38.887534 294.01562 38.605469 L 294.01562 30.578125 L 299.54492 30.578125 L 299.54492 27.173828 L 282.02148 25.851562 z M 304.4043 27.541016 L 304.4043 36.865234 C 304.4043 37.932818 304.52384 38.881237 304.67773 39.794922 L 314.92188 40.214844 C 314.54881 40.022594 314.18608 39.815293 313.90234 39.496094 C 313.21866 38.693508 312.87695 37.357075 312.87695 35.484375 L 312.87695 28.181641 L 304.4043 27.541016 z M 321.4375 28.826172 L 321.4375 34.992188 C 321.4375 36.32983 321.22866 37.430932 320.8125 38.292969 C 320.39634 39.12528 319.84775 39.734664 319.16406 40.121094 C 318.97208 40.229604 318.76034 40.287194 318.55664 40.365234 L 329.91016 40.830078 L 329.91016 29.466797 L 321.4375 28.826172 z M 267.75391 28.974609 C 268.76457 28.974609 269.64163 29.196697 270.38477 29.642578 C 271.15763 30.088459 271.75181 30.713039 272.16797 31.515625 C 272.43307 31.992803 272.58662 32.538839 272.68359 33.121094 L 262.8457 33.121094 C 262.94708 32.555641 263.09849 32.026017 263.33984 31.560547 C 263.756 30.728236 264.33501 30.088459 265.07812 29.642578 C 265.851 29.196697 266.74324 28.974609 267.75391 28.974609 z M 335.70508 29.904297 L 335.70508 41.066406 L 344.17773 41.414062 L 344.17773 30.542969 L 335.70508 29.904297 z M 349.52734 30.947266 L 349.52734 36.865234 C 349.52734 38.691499 349.76058 40.286205 350.21094 41.662109 L 375.0332 42.679688 L 375.0332 32.871094 L 366.56055 32.232422 L 366.56055 34.992188 C 366.56055 36.32983 366.3517 37.430932 365.93555 38.292969 C 365.51939 39.12528 364.97079 39.734664 364.28711 40.121094 C 363.60343 40.507524 362.84403 40.701172 362.01172 40.701172 C 360.73353 40.701172 359.7388 40.29868 359.02539 39.496094 C 358.34171 38.693508 358 37.357075 358 35.484375 L 358 31.585938 L 349.52734 30.947266 z M 380.47266 33.283203 L 380.47266 42.902344 L 388.94336 43.25 L 388.94336 35.839844 C 388.94336 35.130042 389.01153 34.502789 389.12891 33.935547 L 380.47266 33.283203 z M 397.66797 34.580078 C 397.67701 34.762059 397.72852 34.88802 397.72852 35.082031 L 397.72852 43.609375 L 406.19922 43.957031 L 406.19922 35.224609 L 397.66797 34.580078 z " />
  <path
     id="path2916"
     style="font-style:normal;font-variant:normal;font-weight:normal;font-stretch:normal;font-size:44.5881px;line-height:1.25;font-family:Montserrat;-inkscape-font-specification:'Montserrat, @wght=800';font-variant-ligatures:normal;font-variant-caps:normal;font-variant-numeric:normal;font-variant-east-asian:normal;font-variation-settings:'wght' 800;letter-spacing:0px;word-spacing:0px;opacity:1;vector-effect:none;fill:#60a5fa;fill-opacity:1;stroke:none;stroke-width:0.932232;stroke-linecap:round;stroke-linejoin:round;stroke-miterlimit:4;stroke-dasharray:none;stroke-dashoffset:0;stroke-opacity:1;-inkscape-stroke:none;paint-order:stroke fill markers;stop-color:#000000;stop-opacity:1"
     d="M 193.68945 11.673828 C 192.14373 11.673828 190.89457 12.10476 189.94336 12.966797 C 188.99215 13.828833 188.51758 14.899542 188.51758 16.177734 C 188.51758 17.230056 188.91997 18.105076 189.56445 18.875 L 197.33594 19.460938 C 197.36705 19.43344 197.40515 19.415155 197.43555 19.386719 C 198.38676 18.494957 198.86133 17.380612 198.86133 16.042969 C 198.86133 14.764777 198.38676 13.724461 197.43555 12.921875 C 196.48433 12.089564 195.23517 11.673828 193.68945 11.673828 z M 339.94141 11.673828 C 338.39569 11.673828 337.14653 12.10476 336.19531 12.966797 C 335.2441 13.828833 334.76953 14.899542 334.76953 16.177734 C 334.76953 17.455927 335.2441 18.524682 336.19531 19.386719 C 337.14653 20.248755 338.39569 20.679688 339.94141 20.679688 C 341.51685 20.679688 342.76601 20.248755 343.6875 19.386719 C 344.63871 18.494957 345.11328 17.380612 345.11328 16.042969 C 345.11328 14.764777 344.63871 13.724461 343.6875 12.921875 C 342.73629 12.089564 341.48713 11.673828 339.94141 11.673828 z M 380.47266 14.4375 L 380.47266 33.283203 L 389.12891 33.935547 C 389.23273 33.433804 389.37303 32.976593 389.56836 32.585938 C 389.98451 31.753626 390.56351 31.144244 391.30664 30.757812 C 392.04978 30.341658 392.868 30.132814 393.75977 30.132812 C 395.00823 30.132813 395.97452 30.533352 396.6582 31.335938 C 397.29133 32.021827 397.59669 33.144888 397.66797 34.580078 L 406.19922 35.224609 L 406.19922 33.699219 C 406.19922 31.202285 405.75309 29.167243 404.86133 27.591797 C 403.99929 26.016351 402.81092 24.856416 401.29492 24.113281 C 399.77893 23.340421 398.08364 22.955078 396.21094 22.955078 C 394.18961 22.955078 392.37666 23.399254 390.77148 24.291016 C 390.09691 24.653289 389.49719 25.113043 388.94336 25.632812 L 388.94336 14.4375 L 380.47266 14.4375 z M 223.74219 16.310547 L 223.74219 21.453125 L 232.48047 22.113281 L 232.48047 16.310547 L 223.74219 16.310547 z M 244.56445 16.310547 L 238.71875 22.583984 L 247.85742 23.273438 L 254.28516 16.310547 L 244.56445 16.310547 z M 204.39062 17.960938 L 204.39062 19.994141 L 212.86133 20.632812 L 212.86133 17.960938 L 204.39062 17.960938 z M 285.54492 17.960938 L 285.54492 24.248047 L 282.02148 24.248047 L 282.02148 25.851562 L 299.54492 27.173828 L 299.54492 24.248047 L 294.01562 24.248047 L 294.01562 17.960938 L 285.54492 17.960938 z M 267.70898 22.955078 C 265.41449 22.955078 263.33875 23.418533 261.46094 24.300781 L 275.81641 25.384766 C 275.31426 25.030656 274.78863 24.702085 274.21875 24.425781 C 272.25687 23.444843 270.08702 22.955078 267.70898 22.955078 z M 304.4043 23.355469 L 304.4043 27.541016 L 312.87695 28.181641 L 312.87695 23.355469 L 304.4043 23.355469 z M 321.4375 23.355469 L 321.4375 28.826172 L 329.91016 29.466797 L 329.91016 23.355469 L 321.4375 23.355469 z M 335.70508 23.355469 L 335.70508 29.904297 L 344.17773 30.542969 L 344.17773 23.355469 L 335.70508 23.355469 z M 349.52734 23.355469 L 349.52734 30.947266 L 358 31.585938 L 358 23.355469 L 349.52734 23.355469 z M 366.56055 23.355469 L 366.56055 32.232422 L 375.0332 32.871094 L 375.0332 23.355469 L 366.56055 23.355469 z " />
  <path
     id="path2830"
     style="font-style:normal;font-variant:normal;font-weight:normal;font-stretch:normal;font-size:44.5881px;line-height:1.25;font-family:Montserrat;-inkscape-font-specification:'Montserrat, @wght=800';font-variant-ligatures:normal;font-variant-caps:normal;font-variant-numeric:normal;font-variant-east-asian:normal;font-variation-settings:'wght' 800;letter-spacing:0px;word-spacing:0px;opacity:1;vector-effect:none;fill:#2563eb;fill-opacity:1;stroke:none;stroke-width:0.932232;stroke-linecap:round;stroke-linejoin:round;stroke-miterlimit:4;stroke-dasharray:none;stroke-dashoffset:0;stroke-opacity:1;-inkscape-stroke:none;paint-order:stroke fill markers;stop-color:#000000;stop-opacity:1"
     d="M 71.572266 30.238281 L 71.572266 47.521484 L 95.292969 47.521484 L 95.292969 40.521484 L 80.400391 40.521484 L 80.400391 30.601562 L 71.572266 30.238281 z M 112.55664 31.919922 C 112.70595 32.311108 112.76143 32.774392 112.79297 33.253906 L 108.04102 33.253906 C 105.54408 33.253906 103.50709 33.551976 101.93164 34.146484 C 100.35619 34.711267 99.183017 35.542738 98.410156 36.642578 C 97.667021 37.712693 97.294922 38.990292 97.294922 40.476562 C 97.294922 41.873656 97.636628 43.138013 98.320312 44.267578 C 99.033722 45.397143 100.05884 46.289401 101.39648 46.943359 C 102.73413 47.597318 104.36863 47.923828 106.30078 47.923828 C 108.41128 47.923828 110.10657 47.508092 111.38477 46.675781 C 112.2727 46.090555 112.94492 45.30474 113.43555 44.349609 L 113.43555 47.521484 L 121.32812 47.521484 L 121.32812 34.101562 C 121.32812 33.448504 121.25239 32.867005 121.18945 32.273438 L 112.55664 31.919922 z M 126.67773 32.498047 L 126.67773 47.521484 L 135.15039 47.521484 L 135.15039 35.839844 C 135.15039 34.633121 135.34296 33.662655 135.68164 32.867188 L 126.67773 32.498047 z M 143.70703 33.197266 C 143.83461 33.75624 143.93359 34.352953 143.93359 35.082031 L 143.93359 47.521484 L 152.40625 47.521484 L 152.40625 33.699219 C 152.40625 33.645435 152.39299 33.606091 152.39258 33.552734 L 143.70703 33.197266 z M 156.55469 33.722656 C 156.53766 34.012212 156.50391 34.291836 156.50391 34.591797 C 156.50391 36.969829 157.03731 39.035264 158.10742 40.789062 C 159.20726 42.513137 160.65007 43.866718 162.43359 44.847656 C 164.24684 45.798869 166.22305 46.273438 168.36328 46.273438 C 170.41433 46.273438 172.16846 45.857702 173.625 45.025391 C 174.35327 44.609235 174.99305 44.082455 175.54297 43.443359 L 175.54297 44.222656 C 175.54297 46.125082 175.03605 47.56789 174.02539 48.548828 C 173.01473 49.559492 171.36503 50.064453 169.07617 50.064453 C 167.64935 50.064453 166.1781 49.825216 164.66211 49.349609 C 163.17584 48.903728 161.92863 48.281101 160.91797 47.478516 L 157.83984 53.408203 C 159.32611 54.448592 161.11063 55.236427 163.19141 55.771484 C 165.30191 56.306542 167.5154 56.574219 169.83398 56.574219 C 174.35225 56.574219 177.84529 55.473117 180.3125 53.273438 C 182.77971 51.073757 184.01367 47.685134 184.01367 43.107422 L 184.01367 34.849609 L 175.61914 34.503906 C 175.61962 34.534859 175.63086 34.560604 175.63086 34.591797 C 175.63086 35.572735 175.39358 36.434599 174.91797 37.177734 C 174.47209 37.920869 173.84751 38.49986 173.04492 38.916016 C 172.27206 39.332171 171.3798 39.541016 170.36914 39.541016 C 169.35848 39.541016 168.45298 39.332171 167.65039 38.916016 C 166.8478 38.49986 166.20803 37.920869 165.73242 37.177734 C 165.28654 36.434599 165.06445 35.572735 165.06445 34.591797 C 165.06445 34.408202 165.11133 34.249483 165.12695 34.074219 L 156.55469 33.722656 z M 189.45312 35.072266 L 189.45312 47.521484 L 197.92578 47.521484 L 197.92578 35.419922 L 189.45312 35.072266 z M 204.39062 35.683594 L 204.39062 38.693359 C 204.39063 41.784801 205.25249 44.10467 206.97656 45.650391 C 208.70064 47.166386 211.10778 47.923828 214.19922 47.923828 C 215.32878 47.923828 216.41469 47.804209 217.45508 47.566406 C 218.49547 47.358328 219.37253 47.016622 220.08594 46.541016 L 217.99023 40.611328 C 217.27682 41.11666 216.41496 41.369141 215.4043 41.369141 C 214.66116 41.369141 214.05178 41.131856 213.57617 40.65625 C 213.10057 40.150918 212.86133 39.467505 212.86133 38.605469 L 212.86133 36.03125 L 204.39062 35.683594 z M 223.74219 36.476562 L 223.74219 47.521484 L 232.48047 47.521484 L 232.48047 39.705078 L 235.06055 36.941406 L 223.74219 36.476562 z M 236.39062 36.996094 L 244.69727 47.521484 L 254.95312 47.521484 L 247.18359 37.4375 L 236.39062 36.996094 z M 109.19922 37.667969 L 112.85547 37.667969 L 112.85547 39.763672 C 112.49876 40.714885 111.93497 41.42869 111.16211 41.904297 C 110.41897 42.350178 109.58555 42.572266 108.66406 42.572266 C 107.68312 42.572266 106.91049 42.350178 106.3457 41.904297 C 105.78092 41.458416 105.49805 40.864229 105.49805 40.121094 C 105.49805 39.377959 105.76572 38.783772 106.30078 38.337891 C 106.86556 37.89201 107.83185 37.667969 109.19922 37.667969 z M 254.64453 37.744141 C 254.90426 39.222725 255.39373 40.601656 256.16016 41.859375 C 257.34917 43.732075 258.99887 45.21852 261.10938 46.318359 C 263.24959 47.388474 265.74597 47.923828 268.59961 47.923828 C 270.91819 47.923828 272.92479 47.597318 274.61914 46.943359 C 276.31349 46.259675 277.7411 45.278192 278.90039 44 L 274.44141 39.363281 C 273.6091 40.076691 272.76243 40.612045 271.90039 40.96875 C 271.06808 41.295729 270.0562 41.458984 268.86719 41.458984 C 267.589 41.458984 266.48985 41.234944 265.56836 40.789062 C 264.64687 40.313457 263.93307 39.64524 263.42773 38.783203 C 263.31188 38.573226 263.25365 38.323128 263.16602 38.09375 L 254.64453 37.744141 z M 285.56836 39.011719 C 285.62917 41.935454 286.46991 44.161263 288.13086 45.650391 C 289.85493 47.166386 292.26207 47.923828 295.35352 47.923828 C 296.48308 47.923828 297.56703 47.804209 298.60742 47.566406 C 299.64781 47.358328 300.52487 47.016622 301.23828 46.541016 L 299.14258 40.611328 C 298.42917 41.11666 297.5673 41.369141 296.55664 41.369141 C 295.81351 41.369141 295.20412 41.131856 294.72852 40.65625 C 294.40853 40.316267 294.23751 39.864726 294.13281 39.363281 L 285.56836 39.011719 z M 304.67773 39.794922 C 304.88807 41.043662 305.19946 42.191071 305.69727 43.152344 C 306.58903 44.787241 307.80779 45.990811 309.35352 46.763672 C 310.92896 47.536532 312.69828 47.923828 314.66016 47.923828 C 316.50313 47.923828 318.21166 47.492896 319.78711 46.630859 C 320.56061 46.193031 321.24353 45.644975 321.83789 44.992188 L 321.83789 47.521484 L 329.91016 47.521484 L 329.91016 40.830078 L 318.55664 40.365234 C 318.03492 40.565113 317.48727 40.701172 316.88867 40.701172 C 316.11883 40.701172 315.48684 40.505981 314.92188 40.214844 L 304.67773 39.794922 z M 335.70508 41.066406 L 335.70508 46.853516 C 335.70508 47.953355 335.46779 48.756387 334.99219 49.261719 C 334.54631 49.767051 333.95212 50.019531 333.20898 50.019531 C 332.22805 50.019531 331.351 49.782247 330.57812 49.306641 L 328.4375 55.326172 C 329.18064 55.712602 330.07289 56.008719 331.11328 56.216797 C 332.12394 56.4546 333.19465 56.574219 334.32422 56.574219 C 337.44539 56.574219 339.86772 55.697158 341.5918 53.943359 C 343.31587 52.189561 344.17773 49.841252 344.17773 46.898438 L 344.17773 41.414062 L 335.70508 41.066406 z M 350.21094 41.662109 C 350.38366 42.189786 350.58135 42.690907 350.82031 43.152344 C 351.71207 44.787241 352.93084 45.990811 354.47656 46.763672 C 356.05201 47.536532 357.82133 47.923828 359.7832 47.923828 C 361.62618 47.923828 363.33471 47.492896 364.91016 46.630859 C 365.68365 46.193031 366.36657 45.644975 366.96094 44.992188 L 366.96094 47.521484 L 375.0332 47.521484 L 375.0332 42.679688 L 350.21094 41.662109 z M 380.47266 42.902344 L 380.47266 47.521484 L 388.94336 47.521484 L 388.94336 43.25 L 380.47266 42.902344 z M 397.72852 43.609375 L 397.72852 47.521484 L 406.19922 47.521484 L 406.19922 43.957031 L 397.72852 43.609375 z " />
</svg>
