<?xml version="1.0" encoding="UTF-8" standalone="no"?>
<!-- Created with Inkscape (http://www.inkscape.org/) -->

<svg
   width="285"
   height="200"
   viewBox="0 0 75.406249 52.916669"
   version="1.1"
   id="svg5"
   inkscape:version="1.1 (c68e22c387, 2021-05-23)"
   sodipodi:docname="link.svg"
   inkscape:export-filename="telegram.png"
   inkscape:export-xdpi="96"
   inkscape:export-ydpi="96"
   xmlns:inkscape="http://www.inkscape.org/namespaces/inkscape"
   xmlns:sodipodi="http://sodipodi.sourceforge.net/DTD/sodipodi-0.dtd"
   xmlns:xlink="http://www.w3.org/1999/xlink"
   xmlns="http://www.w3.org/2000/svg"
   xmlns:svg="http://www.w3.org/2000/svg">
  <sodipodi:namedview
     id="namedview7"
     pagecolor="#ffffff"
     bordercolor="#666666"
     borderopacity="1.0"
     inkscape:pageshadow="2"
     inkscape:pageopacity="0.0"
     inkscape:pagecheckerboard="0"
     inkscape:document-units="px"
     showgrid="false"
     units="px"
     borderlayer="true"
     inkscape:zoom="0.4875"
     inkscape:cx="331.28205"
     inkscape:cy="324.10256"
     inkscape:window-width="1366"
     inkscape:window-height="703"
     inkscape:window-x="0"
     inkscape:window-y="0"
     inkscape:window-maximized="1"
     inkscape:current-layer="layer1"
     inkscape:snap-global="true" />
  <defs
     id="defs2">
    <clipPath
       clipPathUnits="userSpaceOnUse"
       id="clipPath3950">
      <circle
         style="mix-blend-mode:hard-light;fill:#23ab23;fill-opacity:1;stroke-width:0.585547"
         id="circle3952"
         cx="9.260417"
         cy="9.260417"
         r="9.260417" />
    </clipPath>
    <linearGradient
       xlink:href="#linearGradient29544"
       id="linearGradient29546-2"
       x1="132.10901"
       y1="575.51141"
       x2="1068.3112"
       y2="320.25305"
       gradientUnits="userSpaceOnUse"
       gradientTransform="matrix(0.19572878,0.02077714,-0.02077714,0.19572878,15.116333,41.926913)" />
    <linearGradient
       id="linearGradient29544">
      <stop
         style="stop-color:#1c52f2;stop-opacity:1"
         offset="0"
         id="stop29540" />
      <stop
         style="stop-color:#d62bc3;stop-opacity:0.42363399"
         offset="1"
         id="stop29542" />
    </linearGradient>
    <linearGradient
       xlink:href="#linearGradient4549"
       id="linearGradient4551-1"
       x1="1218.4554"
       y1="30.736158"
       x2="-51.688805"
       y2="481.46146"
       gradientUnits="userSpaceOnUse"
       gradientTransform="matrix(0.19572878,0.02077714,-0.02077714,0.19572878,15.116333,41.926913)" />
    <linearGradient
       id="linearGradient4549">
      <stop
         style="stop-color:#4886f2;stop-opacity:1;"
         offset="0"
         id="stop4545" />
      <stop
         style="stop-color:#8f4bcd;stop-opacity:1"
         offset="1"
         id="stop4547" />
    </linearGradient>
    <linearGradient
       xlink:href="#linearGradient10986"
       id="linearGradient12309-5"
       gradientUnits="userSpaceOnUse"
       x1="1343.8644"
       y1="191.42802"
       x2="861.3941"
       y2="436.60165"
       gradientTransform="matrix(0.19682845,0,0,0.19682845,-1.8538931,35.372178)" />
    <linearGradient
       id="linearGradient10986">
      <stop
         style="stop-color:#6659f2;stop-opacity:1"
         offset="0"
         id="stop10982" />
      <stop
         style="stop-color:#628af5;stop-opacity:1"
         offset="1"
         id="stop10984" />
    </linearGradient>
    <linearGradient
       xlink:href="#linearGradient1509"
       id="linearGradient1511-9"
       x1="466.89359"
       y1="475.49548"
       x2="1404.4065"
       y2="195.51314"
       gradientUnits="userSpaceOnUse"
       gradientTransform="matrix(0.19682845,0,0,0.19682845,-1.8538931,35.372178)" />
    <linearGradient
       id="linearGradient1509">
      <stop
         style="stop-color:#3e2fdd;stop-opacity:1"
         offset="0"
         id="stop1505" />
      <stop
         style="stop-color:#a4007e;stop-opacity:1"
         offset="1"
         id="stop1507" />
    </linearGradient>
    <linearGradient
       xlink:href="#linearGradient4477"
       id="linearGradient4479-5"
       x1="1327.1652"
       y1="150.93445"
       x2="-27.439623"
       y2="614.6449"
       gradientUnits="userSpaceOnUse"
       gradientTransform="matrix(0.19572878,0.02077714,-0.02077714,0.19572878,15.116333,41.926913)" />
    <linearGradient
       id="linearGradient4477">
      <stop
         style="stop-color:#578bf2;stop-opacity:1"
         offset="0"
         id="stop4473" />
      <stop
         style="stop-color:#5a74fa;stop-opacity:1"
         offset="1"
         id="stop4475" />
    </linearGradient>
    <linearGradient
       xlink:href="#linearGradient4685-3"
       id="linearGradient4687-8"
       x1="1284.0638"
       y1="231.57774"
       x2="-19.021584"
       y2="636.71533"
       gradientUnits="userSpaceOnUse"
       gradientTransform="matrix(0.19572878,0.02077714,-0.02077714,0.19572878,15.116333,41.926913)" />
    <linearGradient
       id="linearGradient4685-3">
      <stop
         style="stop-color:#542ef2;stop-opacity:1"
         offset="0"
         id="stop4681-8" />
      <stop
         style="stop-color:#4a98e4;stop-opacity:1"
         offset="0.47512516"
         id="stop26809" />
      <stop
         style="stop-color:#5393f2;stop-opacity:1"
         offset="1"
         id="stop4683-5" />
    </linearGradient>
    <linearGradient
       xlink:href="#linearGradient31045"
       id="linearGradient30817"
       x1="-757.29144"
       y1="414.48566"
       x2="687.20605"
       y2="74.068878"
       gradientUnits="userSpaceOnUse"
       gradientTransform="matrix(0.19682845,0,0,0.19682845,136.6865,79.09809)" />
    <linearGradient
       id="linearGradient31045">
      <stop
         style="stop-color:#94a642;stop-opacity:1"
         offset="0"
         id="stop31041" />
      <stop
         style="stop-color:#83aa61;stop-opacity:1"
         offset="0.31171572"
         id="stop31403" />
      <stop
         style="stop-color:#dc8cd1;stop-opacity:1"
         offset="0.59436423"
         id="stop31273" />
      <stop
         style="stop-color:#6cdddb;stop-opacity:1"
         offset="1"
         id="stop31043" />
    </linearGradient>
    <linearGradient
       xlink:href="#linearGradient25627"
       id="linearGradient25349"
       x1="-19.32687"
       y1="174.87611"
       x2="365.09894"
       y2="71.86953"
       gradientUnits="userSpaceOnUse"
       gradientTransform="matrix(1.0436282,0,0,1.0436282,-111.94933,-10.732884)" />
    <linearGradient
       id="linearGradient25627">
      <stop
         style="stop-color:#bda62c;stop-opacity:1;"
         offset="0"
         id="stop25607" />
      <stop
         style="stop-color:#ae9a28;stop-opacity:0.98823529"
         offset="0.14668909"
         id="stop25609" />
      <stop
         style="stop-color:#8c7b20;stop-opacity:0.96862745"
         offset="0.30530512"
         id="stop25613" />
      <stop
         style="stop-color:#bda62c;stop-opacity:0.95686275;"
         offset="0.51079261"
         id="stop25617" />
      <stop
         style="stop-color:#82721e;stop-opacity:0.94901961"
         offset="0.62310421"
         id="stop25619" />
      <stop
         style="stop-color:#c0ab2c;stop-opacity:0.99607843"
         offset="0.83540899"
         id="stop25623" />
      <stop
         style="stop-color:#7f6f1e;stop-opacity:0.92156863"
         offset="1"
         id="stop25625" />
    </linearGradient>
    <linearGradient
       xlink:href="#linearGradient14653"
       id="linearGradient14655"
       x1="-46.183235"
       y1="706.05402"
       x2="1721.9431"
       y2="445.6926"
       gradientUnits="userSpaceOnUse"
       gradientTransform="matrix(0.27612665,0,0,0.27612665,-111.94933,-10.732884)" />
    <linearGradient
       id="linearGradient14653">
      <stop
         style="stop-color:#bda62c;stop-opacity:1;"
         offset="0"
         id="stop14649" />
      <stop
         style="stop-color:#615516;stop-opacity:0.98823529"
         offset="0.09857609"
         id="stop16599" />
      <stop
         style="stop-color:#cab12f;stop-opacity:0.97647059"
         offset="0.25338677"
         id="stop16339" />
      <stop
         style="stop-color:#8c7b20;stop-opacity:0.96862745"
         offset="0.33815062"
         id="stop16405" />
      <stop
         style="stop-color:#87771f;stop-opacity:0.96470588"
         offset="0.4215126"
         id="stop15309" />
      <stop
         style="stop-color:#bda62c;stop-opacity:0.95686275;"
         offset="0.53338844"
         id="stop15113" />
      <stop
         style="stop-color:#82721e;stop-opacity:0.94901961"
         offset="0.62310421"
         id="stop15179" />
      <stop
         style="stop-color:#80711e;stop-opacity:0.93725497"
         offset="0.73470789"
         id="stop15823" />
      <stop
         style="stop-color:#d7be31;stop-opacity:0.92941177"
         offset="0.83540899"
         id="stop15889" />
      <stop
         style="stop-color:#bda62c;stop-opacity:0.9217537"
         offset="1"
         id="stop14651" />
    </linearGradient>
    <linearGradient
       xlink:href="#linearGradient4685-3"
       id="linearGradient4687-8-6"
       x1="1284.0638"
       y1="231.57774"
       x2="-19.021584"
       y2="636.71533"
       gradientUnits="userSpaceOnUse"
       gradientTransform="matrix(0.33644125,0.03571412,-0.03571412,0.33644125,-89.424144,-27.415752)" />
    <linearGradient
       xlink:href="#linearGradient4477"
       id="linearGradient4479-5-1"
       x1="1327.1652"
       y1="150.93445"
       x2="-27.439623"
       y2="614.6449"
       gradientUnits="userSpaceOnUse"
       gradientTransform="matrix(0.33644125,0.03571412,-0.03571412,0.33644125,-89.424144,-27.415752)" />
    <linearGradient
       xlink:href="#linearGradient1509"
       id="linearGradient6948"
       gradientUnits="userSpaceOnUse"
       gradientTransform="matrix(0.33833152,0,0,0.33833152,-118.59453,-39.765121)"
       x1="466.89359"
       y1="475.49548"
       x2="1404.4065"
       y2="195.51314" />
    <linearGradient
       xlink:href="#linearGradient10986"
       id="linearGradient12309-5-4"
       gradientUnits="userSpaceOnUse"
       x1="1343.8644"
       y1="191.42802"
       x2="861.3941"
       y2="436.60165"
       gradientTransform="matrix(0.33833152,0,0,0.33833152,-118.59453,-38.682787)" />
    <linearGradient
       xlink:href="#linearGradient4549"
       id="linearGradient4551-1-8"
       x1="1218.4554"
       y1="30.736158"
       x2="-51.688805"
       y2="481.46146"
       gradientUnits="userSpaceOnUse"
       gradientTransform="matrix(0.33644125,0.03571412,-0.03571412,0.33644125,-89.424144,-27.415752)" />
    <linearGradient
       xlink:href="#linearGradient29544"
       id="linearGradient24274"
       gradientUnits="userSpaceOnUse"
       gradientTransform="matrix(0.33644125,0.03571417,-0.03571417,0.33644125,-89.424144,-27.415752)"
       x1="132.10901"
       y1="575.51141"
       x2="1068.3112"
       y2="320.25305" />
    <linearGradient
       xlink:href="#linearGradient25627"
       id="linearGradient25349-4"
       x1="-19.32687"
       y1="174.87611"
       x2="365.09894"
       y2="71.86953"
       gradientUnits="userSpaceOnUse"
       gradientTransform="matrix(0.25987854,0,0,0.25987854,-0.72297018,-10.961313)" />
    <linearGradient
       xlink:href="#linearGradient14653"
       id="linearGradient14655-6"
       x1="-46.183235"
       y1="706.05402"
       x2="1721.9431"
       y2="445.6926"
       gradientUnits="userSpaceOnUse"
       gradientTransform="matrix(0.06875955,0,0,0.06875955,-0.72297018,-10.961313)" />
    <linearGradient
       xlink:href="#linearGradient4549-4"
       id="linearGradient4687-8-8"
       x1="1155.105"
       y1="262.50851"
       x2="93.583733"
       y2="615.88306"
       gradientUnits="userSpaceOnUse"
       gradientTransform="matrix(0.08377876,0.00889333,-0.00889333,0.08377876,4.8861274,-15.115587)" />
    <linearGradient
       id="linearGradient4549-4">
      <stop
         style="stop-color:#8b5cf6;stop-opacity:1"
         offset="0"
         id="stop4545-4" />
      <stop
         style="stop-color:#6d28d9;stop-opacity:1"
         offset="0.2124767"
         id="stop3695" />
      <stop
         style="stop-color:#6f5cf6;stop-opacity:1"
         offset="0.42963988"
         id="stop3369" />
      <stop
         style="stop-color:#7c3aed;stop-opacity:1"
         offset="0.59961361"
         id="stop3629" />
      <stop
         style="stop-color:#6376f6;stop-opacity:1"
         offset="0.80968213"
         id="stop3499" />
      <stop
         style="stop-color:#6d28d9;stop-opacity:1"
         offset="1"
         id="stop4547-7" />
    </linearGradient>
    <linearGradient
       xlink:href="#linearGradient120453"
       id="linearGradient4479-5-0"
       x1="1143.1901"
       y1="196.74675"
       x2="120.85666"
       y2="539.48602"
       gradientUnits="userSpaceOnUse"
       gradientTransform="matrix(0.08377876,0.00889333,-0.00889333,0.08377876,4.8861274,-15.115587)" />
    <linearGradient
       id="linearGradient120453">
      <stop
         style="stop-color:#8b5cf6;stop-opacity:1"
         offset="0"
         id="stop120441" />
      <stop
         style="stop-color:#5151dc;stop-opacity:1"
         offset="0.25152168"
         id="stop120443" />
      <stop
         style="stop-color:#3b82f6;stop-opacity:1"
         offset="0.44539982"
         id="stop120445" />
      <stop
         style="stop-color:#8b69f6;stop-opacity:1"
         offset="0.63944036"
         id="stop120447" />
      <stop
         style="stop-color:#60a5fa;stop-opacity:1"
         offset="0.83593452"
         id="stop120449" />
      <stop
         style="stop-color:#60a5fa;stop-opacity:1"
         offset="1"
         id="stop120451" />
    </linearGradient>
    <linearGradient
       xlink:href="#linearGradient1509"
       id="linearGradient6948-1"
       gradientUnits="userSpaceOnUse"
       gradientTransform="matrix(0.08424946,0,0,0.08424946,-2.377723,-18.190762)"
       x1="466.89359"
       y1="475.49548"
       x2="1404.4065"
       y2="195.51314" />
    <linearGradient
       xlink:href="#linearGradient10986-7"
       id="linearGradient12309-5-40"
       gradientUnits="userSpaceOnUse"
       x1="1181.7125"
       y1="252.36546"
       x2="861.3941"
       y2="436.60165"
       gradientTransform="matrix(0.08424946,0,0,0.08424946,-2.377723,-17.921243)" />
    <linearGradient
       id="linearGradient10986-7">
      <stop
         style="stop-color:#7e5af0;stop-opacity:1"
         offset="0"
         id="stop10982-6" />
      <stop
         style="stop-color:#7c61ee;stop-opacity:1"
         offset="0.49538255"
         id="stop136405" />
      <stop
         style="stop-color:#4c6fe2;stop-opacity:1"
         offset="1"
         id="stop10984-6" />
    </linearGradient>
    <linearGradient
       xlink:href="#linearGradient4685-3-5"
       id="linearGradient4551-1-5"
       x1="1112.811"
       y1="69.067085"
       x2="89.147026"
       y2="487.89313"
       gradientUnits="userSpaceOnUse"
       gradientTransform="matrix(0.08377876,0.00889333,-0.00889333,0.08377876,4.8861274,-15.115587)" />
    <linearGradient
       id="linearGradient4685-3-5">
      <stop
         style="stop-color:#60a5fa;stop-opacity:1"
         offset="0"
         id="stop4681-8-8" />
      <stop
         style="stop-color:#365fd8;stop-opacity:1"
         offset="0.23215981"
         id="stop17498" />
      <stop
         style="stop-color:#3b82f6;stop-opacity:1"
         offset="0.43870947"
         id="stop26809-2" />
      <stop
         style="stop-color:#4d4eeb;stop-opacity:1"
         offset="0.65562975"
         id="stop12917" />
      <stop
         style="stop-color:#60a5fa;stop-opacity:1"
         offset="1"
         id="stop4683-5-8" />
    </linearGradient>
    <linearGradient
       xlink:href="#linearGradient29544"
       id="linearGradient24274-8"
       gradientUnits="userSpaceOnUse"
       gradientTransform="matrix(0.08377876,0.00889335,-0.00889335,0.08377876,4.8861274,-15.115587)"
       x1="132.10901"
       y1="575.51141"
       x2="1068.3112"
       y2="320.25305" />
    <linearGradient
       xlink:href="#linearGradient4477-3"
       id="linearGradient118139"
       x1="100.59962"
       y1="115.7887"
       x2="345.10434"
       y2="-9.8373604"
       gradientUnits="userSpaceOnUse"
       gradientTransform="matrix(0.22926523,0,0,0.22926523,12.16327,-6.5648453)" />
    <linearGradient
       id="linearGradient4477-3">
      <stop
         style="stop-color:#8b5cf6;stop-opacity:1"
         offset="0"
         id="stop4473-4" />
      <stop
         style="stop-color:#5151dc;stop-opacity:1"
         offset="0.25152168"
         id="stop55155" />
      <stop
         style="stop-color:#3b82f6;stop-opacity:1"
         offset="0.44539982"
         id="stop41682" />
      <stop
         style="stop-color:#8b5cf6;stop-opacity:1"
         offset="0.63944036"
         id="stop94918" />
      <stop
         style="stop-color:#60a5fa;stop-opacity:1"
         offset="0.83593452"
         id="stop98531" />
      <stop
         style="stop-color:#60a5fa;stop-opacity:1"
         offset="1"
         id="stop4475-3" />
    </linearGradient>
    <linearGradient
       xlink:href="#linearGradient25627"
       id="linearGradient161031"
       x1="-12.419965"
       y1="169.75165"
       x2="373.66388"
       y2="-5.8339572"
       gradientUnits="userSpaceOnUse"
       gradientTransform="matrix(0.22926523,0,0,0.22926523,12.16327,-8.0185519)" />
    <clipPath
       clipPathUnits="userSpaceOnUse"
       id="clipPath2505">
      <rect
         style="font-variation-settings:normal;opacity:1;vector-effect:none;fill:#cccccc;fill-opacity:1;stroke:none;stroke-width:0.671195;stroke-linecap:butt;stroke-linejoin:miter;stroke-miterlimit:4;stroke-dasharray:none;stroke-dashoffset:0;stroke-opacity:1;-inkscape-stroke:none;paint-order:stroke fill markers;stop-color:#000000;stop-opacity:1"
         id="rect2507"
         width="75.40625"
         height="52.916668"
         x="15.538551"
         y="-12.928558" />
    </clipPath>
    <clipPath
       clipPathUnits="userSpaceOnUse"
       id="clipPath2505-7">
      <rect
         style="font-variation-settings:normal;opacity:1;vector-effect:none;fill:#cccccc;fill-opacity:1;stroke:none;stroke-width:0.671195;stroke-linecap:butt;stroke-linejoin:miter;stroke-miterlimit:4;stroke-dasharray:none;stroke-dashoffset:0;stroke-opacity:1;-inkscape-stroke:none;paint-order:stroke fill markers;stop-color:#000000;stop-opacity:1"
         id="rect2507-8"
         width="75.40625"
         height="52.916668"
         x="15.538551"
         y="-12.928558" />
    </clipPath>
    <clipPath
       clipPathUnits="userSpaceOnUse"
       id="clipPath9028">
      <rect
         style="font-variation-settings:normal;opacity:1;vector-effect:none;fill:#cccccc;fill-opacity:1;stroke:none;stroke-width:0.671195;stroke-linecap:butt;stroke-linejoin:miter;stroke-miterlimit:4;stroke-dasharray:none;stroke-dashoffset:0;stroke-opacity:1;-inkscape-stroke:none;paint-order:stroke fill markers;stop-color:#000000;stop-opacity:1"
         id="rect9026"
         width="75.40625"
         height="52.916668"
         x="15.538551"
         y="-12.928558" />
    </clipPath>
    <clipPath
       clipPathUnits="userSpaceOnUse"
       id="clipPath9180">
      <rect
         style="font-variation-settings:normal;opacity:1;vector-effect:none;fill:#cccccc;fill-opacity:1;stroke:none;stroke-width:0.671195;stroke-linecap:butt;stroke-linejoin:miter;stroke-miterlimit:4;stroke-dasharray:none;stroke-dashoffset:0;stroke-opacity:1;-inkscape-stroke:none;paint-order:stroke fill markers;stop-color:#000000;stop-opacity:1"
         id="rect9178"
         width="75.40625"
         height="52.916668"
         x="15.538551"
         y="-12.928558" />
    </clipPath>
  </defs>
  <g
     inkscape:label="Layer 1"
     inkscape:groupmode="layer"
     id="layer1"
     transform="translate(-15.538551,12.928558)">
    <g
       id="whatsapp">
      <g
         id="g2429"
         clip-path="url(#clipPath2505)">
        <rect
           style="fill:#1b1e20;fill-opacity:1;stroke:none;stroke-width:0.0329002;stroke-linecap:round;stroke-linejoin:round;paint-order:stroke fill markers;stop-color:#000000"
           id="rect3074-7"
           width="75.40625"
           height="52.916668"
           x="15.538551"
           y="-12.928558" />
        <g
           id="g1363"
           transform="matrix(1.1794673,0,0,1.1794673,-16.149185,-3.3060584)">
          <path
             id="path145852"
             style="fill:url(#linearGradient161031);fill-opacity:1;stroke:none;stroke-width:0.0222909px;stroke-linecap:butt;stroke-linejoin:miter;stroke-opacity:1"
             d="M 96.092564,-10.471207 C 83.645145,-8.9059321 84.53815,7.2393202 73.09031,9.0850864 65.480173,9.5124712 63.064411,7.1373131 57.273873,8.5952176 50.376477,10.331801 46.260707,16.610989 40.367096,17.177955 c -6.31265,0.607266 -13.492114,-2.565371 -20.338671,0.693973 -4.250897,2.023666 -6.233195,7.195244 -8.720197,10.89327 v 4.729225 c 5.578045,-3.1981 10.41974,-8.089582 14.445198,-9.364706 4.102804,-1.299622 8.316118,-0.53678 12.608461,-0.43303 3.780284,0.09137 7.708645,-2.530548 11.607461,-2.789403 7.794715,-0.517541 16.219199,1.482358 23.858361,0.234584 7.414444,-1.211064 12.671995,-7.209415 19.659691,-8.979779 0.847653,-0.214755 1.71869,-0.339287 2.605164,-0.404357 z" />
          <path
             id="path3392-8"
             style="fill:none;stroke:url(#linearGradient118139);stroke-width:0.022291px;stroke-linecap:butt;stroke-linejoin:miter;stroke-opacity:1"
             d="m 34.797293,22.96387 c 0,0 6.463463,-1.052675 9.700103,-1.547628 4.643337,-0.710067 9.342986,-1.091348 13.943501,-2.040067 4.598402,-0.948285 9.243474,-1.907137 13.606772,-3.640973 5.640366,-2.241302 10.4582,-6.2254934 16.02245,-8.6495972 2.586515,-1.1268341 8.016214,-2.7163551 8.016214,-2.7163551 M 34.659464,22.838155 c 0,0 6.519446,-1.039397 9.777232,-1.571037 4.642581,-0.757626 9.321696,-1.32535 13.922141,-2.3069 4.607802,-0.983123 9.304998,-1.816259 13.673161,-3.581909 5.604377,-2.26534 10.316736,-6.3598448 15.808778,-8.8853688 2.660602,-1.223483 8.252719,-3.0123179 8.252719,-3.0123179 M 34.521635,22.712437 c 0,0 6.575665,-1.025596 9.85415,-1.594158 4.643073,-0.805218 9.299139,-1.558517 13.900956,-2.573295 4.617141,-1.01816 9.366996,-1.724925 13.73958,-3.523568 5.568216,-2.29046 10.170595,-6.4987562 15.58961,-9.1227771 2.732734,-1.3232568 8.484282,-3.314595 8.484282,-3.314595 M 34.383803,22.586707 c 0,0 6.632127,-1.011297 9.930866,-1.616992 4.644819,-0.852857 9.275357,-1.790872 13.87998,-2.839275 4.626401,-1.053364 9.429775,-1.632402 13.805997,-3.465927 5.537896,-2.320236 10.028263,-6.6542312 15.379499,-9.3774756 2.81011,-1.430065 8.734671,-3.6306694 8.734671,-3.6306694 m -61.86884,20.804627 c 0,0 6.68883,-0.996555 10.007371,-1.639568 4.647802,-0.900573 9.250358,-2.022449 13.859204,-3.104862 4.635585,-1.088696 9.49271,-1.540256 13.872424,-3.408945 5.501242,-2.347215 9.872131,-6.8002062 15.148768,-9.6162665 2.877428,-1.535639 8.954703,-3.94378148 8.954703,-3.94378148 M 34.108146,22.335278 c 0,0 6.745766,-0.981398 10.083678,-1.661883 4.652007,-0.948379 9.224168,-2.253274 13.838639,-3.370086 4.644689,-1.124126 9.556407,-1.447053 13.938837,-3.352591 5.470099,-2.378466 9.71897,-6.960866 14.926066,-9.8703769 2.949027,-1.6477956 9.191438,-4.26911336 9.191438,-4.26911336 M 33.970314,22.20955 c 0,0 6.802934,-0.965862 10.159785,-1.683948 4.657425,-0.996304 9.196803,-2.48339 13.818282,-3.63498 4.65371,-1.159618 9.620657,-1.353304 14.005243,-3.296794 5.440808,-2.411666 9.563436,-7.1278929 14.702488,-10.1293299 3.020117,-1.7638842 9.429858,-4.601014 9.429858,-4.601014 M 33.832487,22.083833 c 0,0 6.860325,-0.949995 10.235691,-1.705799 4.664029,-1.044362 9.16827,-2.71285 13.798122,-3.899591 4.662658,-1.195148 9.685454,-1.259086 14.071654,-3.241517 C 77.35133,10.79024 81.343442,5.936328 86.416068,2.8445005 89.506524,0.96083214 96.085734,-2.094081 96.085734,-2.094081 M 33.694655,21.95812 c 0,0 6.917927,-0.933834 10.311396,-1.72745 4.671807,-1.092581 9.138573,-2.94171 13.778146,-4.163969 4.671534,-1.230677 9.750768,-1.164466 14.138084,-3.186661 5.387643,-2.483263 9.244924,-7.4778519 14.252674,-10.6583774 3.159596,-2.0067265 9.909889,-5.280549 9.909889,-5.280549 M 33.556823,21.832395 c 0,0 6.975738,-0.917413 10.386885,-1.748922 4.680747,-1.140988 9.107722,-3.170046 13.758346,-4.428186 4.680347,-1.266182 9.816578,-1.06949 14.204551,-3.132142 C 77.27049,10.001751 80.988796,4.8636945 85.93363,1.5960781 89.161307,-0.53681749 96.085058,-4.0300172 96.085058,-4.0300172 M 33.418998,21.706678 c 0,0 7.033742,-0.900772 10.462172,-1.770219 4.690814,-1.189587 9.075744,-3.397846 13.738728,-4.692226 4.689091,-1.301628 9.880168,-0.979864 14.271034,-3.077985 5.273423,-2.5198355 8.82834,-7.7003058 13.643617,-11.012654 3.215787,-2.212084 10.126602,-5.8790599 10.126602,-5.8790599 l 0.212875,-0.1430246 0.212872,-0.1430273 M 33.28117,21.580956 c 0,0 7.091947,-0.883904 10.537281,-1.791296 4.702014,-1.238354 9.042707,-3.624997 13.719347,-4.955982 4.697764,-1.336999 9.949688,-0.87862 14.337461,-3.024325 C 77.197345,9.206753 80.624557,3.7745494 85.448732,0.33572676 88.808559,-2.0592625 96.08584,-5.9944828 96.08584,-5.9944828 M 33.143334,21.455241 c 0,0 7.150315,-0.866939 10.612141,-1.812335 4.714284,-1.287431 9.008443,-3.851995 13.700001,-5.219918 C 62.161908,13.05073 67.472318,13.640029 71.859583,11.452454 77.163439,8.8078498 80.43953,3.2272979 85.206542,-0.29412211 88.629888,-2.8229656 96.086751,-6.9761997 96.086751,-6.9761997 M 33.005505,21.329518 c 0,0 7.208826,-0.849894 10.686745,-1.833323 4.727612,-1.3368 8.972981,-4.078798 13.680718,-5.483983 C 62.088059,12.604833 67.45727,13.32495 71.843911,11.095564 77.130921,8.4085865 80.25259,2.6803031 84.964404,-0.92124022 88.449053,-3.5847841 96.086424,-7.9523045 96.086424,-7.9523045 M 32.867681,21.203801 c 0,0 7.267466,-0.832799 10.761085,-1.854288 4.741972,-1.386491 8.936303,-4.305482 13.661457,-5.74825 4.723758,-1.442347 10.152044,-0.591571 14.538012,-2.862594 5.271691,-2.7296458 8.23603,-8.604776 12.89485,-12.2840494 3.543922,-2.7987874 11.363261,-7.3762842 11.363261,-7.3762842 M 32.729843,21.078081 c 0,0 7.326232,-0.815696 10.835163,-1.875253 4.757339,-1.436522 8.898409,-4.532105 13.642195,-6.012777 4.73246,-1.477136 10.22003,-0.495922 14.605359,-2.80828 5.25779,-2.772403 8.06225,-8.792924 12.670274,-12.5474815 3.601102,-2.9341294 11.603751,-7.7166301 11.603751,-7.7166301 M 32.592019,20.952364 c 0,0 7.385093,-0.798617 10.908951,-1.896231 4.773698,-1.486917 8.859285,-4.758727 13.622907,-6.277607 4.741209,-1.511736 10.288207,-0.400363 14.673007,-2.753645 5.244993,-2.8149388 7.887333,-8.9785831 12.446516,-12.8058155 3.655934,-3.068997 11.84253,-8.0508305 11.84253,-8.0508305 M 32.454187,20.826641 c 0,0 7.444053,-0.781584 10.982456,-1.917244 4.791017,-1.537689 8.818914,-4.985404 13.603562,-6.542801 4.750033,-1.546128 10.356547,-0.304909 14.741009,-2.6986165 5.233501,-2.8572456 7.711932,-9.16173215 12.224514,-13.0591699 3.708776,-3.2032046 12.080705,-8.3783256 12.080705,-8.3783256 M 32.31636,20.700924 c 0,0 7.503082,-0.764639 11.055658,-1.938311 4.80928,-1.588854 8.77729,-5.212171 13.584135,-6.80838 4.758947,-1.5803 10.425019,-0.209587 14.809388,-2.6431437 5.222858,-2.8989649 7.535871,-9.34112988 12.00369,-13.3060817 3.759269,-3.3361505 12.316836,-8.6979066 12.316836,-8.6979066 m -63.907536,33.2681 c 0,0 7.562175,-0.7478 11.128549,-1.959444 4.828464,-1.640428 8.734412,-5.439084 13.564612,-7.074396 4.767964,-1.614243 10.49358,-0.114404 14.878176,-2.5871737 5.213139,-2.9400375 7.359636,-9.51663213 11.784667,-13.5464868 3.807669,-3.4676281 12.551581,-9.0090535 12.551581,-9.0090535 M 32.040701,20.449484 c 0,0 7.621313,-0.731094 11.201127,-1.980658 4.848545,-1.692422 8.690257,-5.666172 13.54495,-7.340874 4.777118,-1.6479448 10.562213,-0.01935 14.947412,-2.5306596 5.204107,-2.9802668 7.183322,-9.687593 11.567352,-13.7796632 3.853919,-3.5972609 12.78443,-9.3110312 12.78443,-9.3110312 M 31.902871,20.323769 c 0,0 7.680484,-0.714552 11.273382,-2.001961 4.869501,-1.74485 8.644834,-5.893468 13.525148,-7.607845 4.78642,-1.6813945 10.630894,0.07555 15.017114,-2.4735631 5.195673,-3.0195376 7.007156,-9.8536774 11.351912,-14.0052692 3.898104,-3.7247999 13.015377,-9.6033337 13.015377,-9.6033337 m -64.320762,35.56625 c 0,0 7.739674,-0.698182 11.345301,-2.023362 4.891321,-1.797715 8.598144,-6.121006 13.505193,-7.875332 4.795893,-1.7145853 10.699601,0.170344 15.08731,-2.4158458 5.187731,-3.0577377 6.831365,-10.0146031 11.1385,-14.2230363 3.940319,-3.8500249 13.24443,-9.8855649 13.24443,-9.8855649 M 31.627208,20.072327 c 0,0 7.798878,-0.682008 11.41689,-2.044872 4.913971,-1.851029 8.550174,-6.348806 13.485053,-8.1433542 C 61.33469,8.136584 67.297475,10.149134 71.687171,7.5266123 76.867324,4.4318506 78.34325,-2.6434578 82.614303,-6.9060435 86.594924,-10.878777 96.085723,-17.06342 96.085723,-17.06342 M 31.48938,19.946606 c 0,0 7.85807,-0.666055 11.488136,-2.066488 4.937441,-1.904802 8.50093,-6.576891 13.464719,-8.411927 C 61.257628,7.6880105 67.279293,9.82783 71.671496,7.1697151 76.844294,4.0391902 78.152905,-3.1501362 82.389283,-7.4641994 86.408343,-11.556957 96.085472,-17.88275 96.085472,-17.88275 m -64.73392,37.703639 c 0,0 7.917241,-0.650333 11.559039,-2.088227 4.961703,-1.959036 8.450412,-6.805276 13.44418,-8.6810667 C 61.180232,7.2390268 67.260557,9.5057949 71.655825,6.8128204 76.821503,3.6478163 77.963445,-3.6511635 82.166569,-8.0141021 86.222404,-12.224146 96.085638,-18.683123 96.085638,-18.683123 M 31.213719,19.695162 c 0,0 7.976386,-0.634853 11.629593,-2.110076 4.986749,-2.013731 8.398637,-7.03397 13.423442,-8.9507695 4.835755,-1.844684 10.974513,0.5487417 15.373394,-2.178391 C 76.798672,3.2578383 77.774712,-4.1461767 81.945716,-8.5553597 86.03655,-12.879794 96.085078,-19.464039 96.085078,-19.464039 M 31.07589,19.569447 c 0,0 8.035489,-0.619643 11.699792,-2.132059 5.012554,-2.068898 8.345595,-7.262996 13.402472,-9.2210611 4.8463,-1.8765243 11.043235,0.6432884 15.446313,-2.1173008 5.151572,-3.2298702 5.962782,-10.7346887 10.10304,-15.1876676 4.124489,-4.4360205 14.358244,-11.1376825 14.358244,-11.1376825 M 30.938065,19.443729 c 0,0 8.09454,-0.604697 11.769645,-2.154156 C 47.746805,15.16504 50.999023,9.7972323 56.088997,7.7976568 60.946088,5.8895693 67.20096,8.5355423 71.608796,5.7421334 76.753247,2.4819086 77.400685,-5.1191485 81.511147,-9.6134272 85.667685,-14.158088 96.085653,-20.969505 96.085653,-20.969505" />
          <path
             id="path22726-9"
             style="font-variation-settings:normal;vector-effect:none;fill:none;fill-opacity:1;stroke:url(#linearGradient24274-8);stroke-width:0.0668726;stroke-linecap:butt;stroke-linejoin:miter;stroke-miterlimit:4;stroke-dasharray:none;stroke-dashoffset:0;stroke-opacity:1;stop-color:#000000"
             d="m 11.709201,36.028645 c 4.5799,-1.183767 9.487615,-8.156276 14.507792,-8.906334 5.923295,-0.884992 10.746531,4.189078 16.885456,4.306229 10.168487,0.194064 15.039535,-10.18844 27.47114,-3.035015 5.413417,3.115 14.63121,0.375844 19.669045,-5.7058 M 11.659627,35.922777 c 4.532408,-1.215253 9.387725,-8.297467 14.458423,-9.024321 5.901305,-0.859422 10.815381,4.165038 17.016184,4.224831 10.032238,0.158222 14.95602,-10.02125 27.214711,-3.063083 5.453979,3.020592 14.490087,0.343632 19.596397,-5.567396 m -78.33529,13.324103 c 4.484914,-1.246733 9.287832,-8.438673 14.409055,-9.142313 5.879325,-0.83385 10.884238,4.141015 17.146908,4.143423 9.895998,0.122388 14.872514,-9.854054 26.958287,-3.091141 5.494528,2.926179 14.34896,0.311415 19.523746,-5.428988 m -78.08757,13.413151 c 4.437424,-1.278219 9.187942,-8.579877 14.359683,-9.260302 5.857346,-0.808266 10.953088,4.11699 17.277636,4.062025 9.759755,0.08654 14.789004,-9.68687 26.701859,-3.119194 5.535082,2.831757 14.207851,0.279181 19.451106,-5.290596 m -77.83986,13.502197 c 4.389931,-1.309693 9.088052,-8.721071 14.31031,-9.378288 5.835372,-0.78269 11.021949,4.09296 17.40837,3.980635 9.623512,0.05069 14.705492,-9.51969 26.445435,-3.147259 5.575637,2.737334 14.066723,0.246956 19.378444,-5.152208 M 11.461329,35.499305 c 4.342438,-1.341172 8.988162,-8.862274 14.260937,-9.496287 5.813391,-0.757116 11.090799,4.068949 17.539099,3.89924 9.487263,0.01484 14.621983,-9.352493 26.189007,-3.17532 5.616184,2.642922 13.925603,0.214741 19.305784,-5.013796 M 11.411754,35.393439 c 4.294945,-1.372647 8.888268,-9.003472 14.211572,-9.61427 5.79141,-0.731554 11.159649,4.044903 17.669824,3.81783 9.351022,-0.02097 14.538473,-9.185304 25.932581,-3.203382 5.656741,2.548506 13.784485,0.182526 19.233137,-4.875398 m -77.096689,13.76935 c 4.247454,-1.404131 8.78838,-9.144672 14.162201,-9.732261 5.76943,-0.705971 11.228503,4.020883 17.800549,3.736432 9.214781,-0.05682 14.454963,-9.018113 25.676158,-3.23143 5.697299,2.454076 13.643361,0.150295 19.160477,-4.737002 M 11.312605,35.181699 c 4.199962,-1.435612 8.688488,-9.285866 14.112829,-9.850245 5.747449,-0.680392 11.297356,3.996846 17.931275,3.655033 9.078535,-0.09266 14.371448,-8.850931 25.419733,-3.259494 5.737852,2.359661 13.502239,0.118076 19.087829,-4.598608 M 11.308164,35.059633 c 4.139486,-1.508452 8.563292,-9.412825 14.018327,-9.952035 5.725473,-0.654821 11.366208,3.972816 18.061994,3.57363 8.942295,-0.128514 14.287949,-8.68374 25.163315,-3.287558 5.778403,2.265249 13.361116,0.08585 19.01517,-4.460197 M 11.308159,34.934252 c 4.077729,-1.586459 8.436472,-9.536545 13.919386,-10.050509 5.703494,-0.629242 11.435066,3.948791 18.192722,3.492226 8.806049,-0.164344 14.204444,-8.516547 24.906888,-3.31561 5.818956,2.170828 13.22,0.05363 18.942527,-4.32181 M 11.308168,34.806956 c 4.015974,-1.665588 8.310568,-9.658187 13.820433,-10.147075 5.681509,-0.60367 11.503919,3.924765 18.32345,3.410834 8.66981,-0.200188 14.120935,-8.34936 24.650452,-3.343676 5.859514,2.076409 13.078886,0.02144 18.869885,-4.18341 M 11.308286,34.6776 c 3.954203,-1.7459 8.185565,-9.777636 13.721369,-10.241572 5.659528,-0.578092 11.572777,3.900734 18.454181,3.32943 8.533564,-0.236031 14.037422,-8.182166 24.394028,-3.37173 5.900069,1.981988 12.937752,-0.01089 18.797226,-4.045011 M 11.308219,34.546196 c 3.892518,-1.827097 8.061662,-9.894875 13.622488,-10.33403 5.637552,-0.552521 11.641634,3.876704 18.584912,3.248035 8.397314,-0.271866 13.953907,-8.014983 24.13761,-3.399792 5.940613,1.88757 12.79663,-0.04303 18.72456,-3.906605 M 11.308195,34.412529 c 3.830866,-1.909361 7.938758,-10.009695 13.523571,-10.424216 5.615569,-0.52695 11.710483,3.852676 18.715638,3.166627 8.261067,-0.307704 13.870397,-7.847785 23.881175,-3.427854 5.981172,1.793166 12.655513,-0.07523 18.651917,-3.768208 M 11.308195,34.276471 c 3.769267,-1.992622 7.816905,-10.121959 13.424623,-10.512018 5.593593,-0.501371 11.779346,3.828655 18.846368,3.085232 8.124825,-0.34355 13.786889,-7.680601 23.624752,-3.455907 6.021729,1.698734 12.514399,-0.107474 18.579265,-3.629821 M 11.308174,34.137928 c 3.707753,-2.076819 7.696169,-10.231571 13.3257,-10.597334 5.571614,-0.475792 11.848196,3.804627 18.977093,3.003834 7.988576,-0.379393 13.703378,-7.513405 23.368328,-3.483966 6.062278,1.604315 12.373269,-0.139697 18.506604,-3.491416 M 11.308144,33.99674 c 3.646337,-2.161896 7.576579,-10.338352 13.226784,-10.680002 5.549637,-0.450221 11.917051,3.780597 19.107818,2.922433 7.852344,-0.415231 13.619876,-7.346222 23.1119,-3.512022 6.102835,1.509894 12.232159,-0.171919 18.433957,-3.353027 M 11.308151,33.85274 c 3.585023,-2.247848 7.458156,-10.442147 13.127829,-10.759857 5.527658,-0.424653 11.985909,3.756568 19.238548,2.841031 7.71609,-0.451072 13.536364,-7.179038 22.855478,-3.540088 6.143376,1.41549 12.091027,-0.204138 18.361303,-3.214614 m -73.583108,14.52654 c 3.523838,-2.33462 7.340938,-10.542763 13.028833,-10.836722 5.505672,-0.39908 12.05476,3.732529 19.369273,2.759625 7.579855,-0.486916 13.45286,-7.01184 22.599055,-3.568142 6.183942,1.32106 11.949916,-0.236359 18.288647,-3.076222 M 11.30819,33.55568 c 3.462825,-2.422041 7.225017,-10.640097 12.929904,-10.910516 5.483695,-0.373495 12.12361,3.708517 19.499992,2.678244 7.443614,-0.522766 13.36935,-6.844659 22.342635,-3.596214 6.224494,1.226648 11.808786,-0.268582 18.216002,-2.937819 M 11.308208,33.402292 c 3.401989,-2.510127 7.110405,-10.733915 12.83094,-10.980982 5.461713,-0.347921 12.192465,3.684485 19.630727,2.596839 7.307366,-0.5586 13.285833,-6.677468 22.086203,-3.624263 6.265045,1.132226 11.667668,-0.300812 18.14334,-2.799433 M 11.308137,33.245495 c 3.341386,-2.598697 6.997194,-10.824106 12.732065,-11.048047 5.439732,-0.322344 12.26132,3.660463 19.76145,2.515444 7.17113,-0.594445 13.202334,-6.510276 21.829785,-3.652322 6.305598,1.037803 11.526541,-0.33303 18.070684,-2.661027 M 11.308165,33.084947 C 14.589158,30.39713 18.19352,22.17462 23.941256,21.973591 c 5.417759,-0.29677 12.330176,3.63643 19.892181,2.434032 7.034876,-0.630275 13.118818,-6.343072 21.573354,-3.680376 6.34616,0.943401 11.385422,-0.365249 17.99804,-2.522631 M 11.30824,32.920472 c 3.220854,-2.777328 6.774967,-10.992391 12.53407,-11.170737 5.395776,-0.271192 12.399036,3.612402 20.022906,2.352634 6.898641,-0.666116 13.035314,-6.175897 21.316929,-3.708437 6.386705,0.848974 11.244316,-0.39747 17.925392,-2.384232 M 11.308164,32.752036 c 3.161055,-2.866973 6.666163,-11.070249 12.435201,-11.22616 5.373797,-0.245615 12.467884,3.588383 20.153635,2.271244 6.762388,-0.70197 12.951795,-6.008709 21.060502,-3.736503 6.42726,0.754552 11.103183,-0.429695 17.852734,-2.245833 m -71.50213,14.764481 c 3.101584,-2.95677 6.558925,-11.14353 12.336317,-11.277248 5.351818,-0.220044 12.53674,3.56435 20.284358,2.189838 6.62615,-0.7378 12.868289,-5.841512 20.804074,-3.764555 6.467817,0.660145 10.962067,-0.461914 17.780089,-2.107434 m -71.20469,14.781871 c 3.04243,-3.046726 6.453246,-11.211789 12.237223,-11.323574 5.329837,-0.194468 12.605586,3.540323 20.415089,2.108435 6.489905,-0.773641 12.784781,-5.674321 20.547649,-3.792619 6.508367,0.565734 10.820944,-0.494131 17.70743,-1.969032 m -70.90751,14.794726 c 2.983755,-3.136334 6.349361,-11.275246 12.138396,-11.365364 5.307854,-0.168894 12.674446,3.516285 20.545817,2.02704 6.353657,-0.809491 12.701271,-5.507141 20.291231,-3.820686 6.548925,0.471309 10.679815,-0.526349 17.634766,-1.830632 M 11.30815,32.032407 c 2.925499,-3.22575 6.247181,-11.33322 12.039436,-11.401957 5.285878,-0.143322 12.7433,3.492265 20.676548,1.945631 6.217415,-0.845321 12.61776,-5.339944 20.034795,-3.848734 6.589476,0.376891 10.538705,-0.558577 17.562122,-1.692229 M 11.308153,31.83982 c 2.867741,-3.314679 6.146821,-11.38558 11.940487,-11.433229 5.263898,-0.117749 12.81216,3.468231 20.807274,1.864239 6.081168,-0.881157 12.534252,-5.172759 19.778371,-3.876805 6.630026,0.282481 10.397582,-0.590785 17.489467,-1.553828 M 11.308174,31.641591 c 2.810525,-3.402968 6.04834,-11.431995 11.841522,-11.458859 5.241921,-0.09217 12.881008,3.444216 20.937997,1.782837 5.94493,-0.917004 12.450746,-5.005564 19.521949,-3.904853 6.670582,0.188058 10.256465,-0.623017 17.416822,-1.415438 M 11.308177,31.437479 c 2.753905,-3.490385 5.951807,-11.472208 11.742576,-11.478601 5.219932,-0.0666 12.949865,3.42018 21.068724,1.701434 5.808682,-0.95285 12.367228,-4.838373 19.265521,-3.932915 6.711138,0.09364 10.115349,-0.655238 17.344168,-1.277032 M 11.30817,31.227184 c 2.697938,-3.576731 5.857291,-11.505898 11.643637,-11.492165 5.197962,-0.04103 13.018718,3.396153 21.199447,1.620043 5.672441,-0.988689 12.283729,-4.671189 19.009106,-3.960978 6.751684,-2.29e-4 9.974214,-0.687456 17.271505,-1.13864 M 11.30813,31.010414 c 2.642681,-3.661754 5.764859,-11.532784 11.544731,-11.499251 5.175977,-0.01542 13.087578,3.372125 21.330172,1.538637 5.536201,-1.02452 12.200227,-4.503996 18.752675,-3.989036 6.792245,-0.0952 9.833107,-0.719677 17.198864,-1.000237 M 11.308103,30.786812 c 2.588184,-3.745244 5.674567,-11.552468 11.445812,-11.499508 5.154,0.01009 13.156425,3.348091 21.460902,1.457237 5.399963,-1.060371 12.116718,-4.33681 18.496248,-4.017088 6.832794,-0.18962 9.691985,-0.751908 17.126209,-0.861845 M 11.308169,30.555923 c 2.534492,-3.826965 5.586464,-11.564495 11.346802,-11.492471 5.132019,0.03572 13.225284,3.324066 21.591635,1.375832 5.263706,-1.096216 12.033197,-4.169614 18.239816,-4.045149 6.873353,-0.284036 9.550861,-0.784133 17.053556,-0.723444 M 11.307773,30.318292 c 2.481779,-3.90638 5.500743,-11.569402 11.248252,-11.478701 5.110043,0.06128 13.294136,3.300034 21.72236,1.294437 5.127463,-1.13205 11.949687,-4.002424 17.983401,-4.07321 6.913903,-0.378455 9.409735,-0.816347 16.980906,-0.585048 M 11.307629,30.0725 c 2.429969,-3.983544 5.417293,-11.565738 11.149451,-11.456771 5.08806,0.08686 13.36299,3.276027 21.853082,1.213042 4.99123,-1.167893 11.866184,-3.835238 17.726975,-4.101275 6.95446,-0.472869 9.268621,-0.848566 16.90825,-0.446641 M 11.307956,29.817817 c 2.379101,-4.058221 5.336147,-11.552754 11.050178,-11.425942 5.066089,0.112426 13.43185,3.251984 21.983813,1.131637 4.854981,-1.203726 11.782672,-3.668054 17.47055,-4.129331 6.995004,-0.567287 9.127496,-0.880789 16.835596,-0.308251" />
          <path
             id="path2997-1-1"
             style="fill:url(#linearGradient4551-1-5);fill-opacity:1;stroke:none;stroke-width:0.0222909px;stroke-linecap:butt;stroke-linejoin:miter;stroke-opacity:1"
             d="M 96.092564,-10.061907 C 83.645145,-8.4966341 84.53815,7.3791674 73.09031,9.2249335 65.480173,9.6523162 63.064411,7.5554309 57.273873,9.0133354 50.376477,10.749919 46.260707,16.750838 40.367096,17.317804 34.054446,17.92507 26.874982,14.87286 20.028425,18.132208 15.777528,20.155873 13.79523,25.309814 11.308228,29.007841 v 5.037604 c 5.578045,-3.198102 10.419742,-8.089582 14.445198,-9.364706 4.102804,-1.299623 8.316118,-0.53678 12.608461,-0.43303 3.780284,0.09137 7.708645,-2.530547 11.607461,-2.789403 7.794715,-0.517544 16.219199,1.482358 23.858361,0.234584 7.414444,-1.211067 12.671995,-7.209419 19.659691,-8.979782 0.847653,-0.214758 1.71869,-0.33929 2.605164,-0.40436 z" />
          <path
             id="path6969-8-7"
             style="fill:url(#linearGradient12309-5-40);fill-opacity:1;stroke:none;stroke-width:0.022291px;stroke-linecap:butt;stroke-linejoin:miter;stroke-opacity:1"
             d="M 96.092609,0.81483401 C 88.342663,1.8446957 84.432105,4.9807046 79.641892,11.544813 73.956183,19.336021 63.365759,16.29742 63.365759,16.29742 l 12.497986,4.409071 20.228864,-3.682529 z" />
          <path
             id="path3305-1"
             style="fill:none;fill-opacity:1;stroke:url(#linearGradient6948-1);stroke-width:0.022291px;stroke-linecap:butt;stroke-linejoin:miter;stroke-opacity:1"
             d="m 36.595019,20.74233 c 1.845246,0.169778 6.620993,-0.09126 8.430091,-0.7087 9.200376,-4.47861 12.638933,-9.573477 23.127802,-6.529908 11.760894,3.41268 15.813454,-12.60695548 27.956869,-14.38053986 M 36.528685,24.348046 c 0,0 4.26515,-0.210649 10.2384,-0.568886 10.548866,-0.743213 13.784694,-0.546823 25.321341,2.584989 7.93133,2.15309 16.419903,-8.182282 24.024034,-9.549683 m -59.581486,7.40925 c 0.06363,0.0058 4.346385,-0.20654 10.17604,-0.573712 10.497673,-0.884769 13.773878,-0.860412 25.245713,2.270675 8.009375,2.186053 16.486683,-8.166664 24.160361,-9.618336 m -59.579826,7.797033 c 0.127261,0.01178 4.427619,-0.20242 10.113686,-0.578521 10.446272,-1.025974 13.761937,-1.175465 25.170062,1.956357 8.088583,2.220526 16.553607,-8.157648 24.295539,-9.696772 m -59.576998,8.194598 c 0.190885,0.01753 4.508855,-0.198291 10.051335,-0.583349 10.385899,-1.167009 13.762572,-1.488208 25.094421,1.642071 8.169097,2.256605 16.620599,-8.15594 24.429492,-9.785364 m -59.572962,8.602311 c 0.254511,0.02341 4.590093,-0.194184 9.988974,-0.588169 10.337067,-1.308071 13.746764,-1.80676 25.018783,1.327747 8.25214,2.294743 16.690037,-8.16275 24.565668,-9.885181 M 36.54012,23.726372 c 0.318154,0.02929 4.671334,-0.190071 9.926622,-0.592989 10.290381,-1.448855 13.727589,-2.127586 24.943157,1.013443 8.337652,2.335042 16.761314,-8.178989 24.70323,-9.996484 m -59.570715,9.451692 c 0.381774,0.03512 4.752565,-0.185942 9.864258,-0.597804 10.239079,-1.585961 13.70295,-2.451353 24.867513,0.699142 8.425319,2.377515 16.833174,-8.205391 24.840474,-10.11918 M 36.5447,23.477696 c 0.445402,0.04098 4.833798,-0.181823 9.801914,-0.602625 10.187073,-1.724403 13.685325,-2.774665 24.791872,0.38484 8.514853,2.42224 16.904376,-8.242857 24.975727,-10.253062 m -59.56723,10.346514 c 0.509038,0.04684 4.915044,-0.177712 9.739556,-0.607444 10.135112,-1.862045 13.665765,-3.097296 24.716239,0.07052 8.612446,2.468913 16.970327,-8.291417 25.109334,-10.398255 M 36.549275,23.229028 c 0.57266,0.05268 4.996267,-0.173589 9.6772,-0.612267 10.083259,-1.998799 13.645281,-3.423057 24.640582,-0.24378 8.730565,2.524428 17.019762,-8.349389 25.241665,-10.554826 M 36.551565,23.10469 c 0.636292,0.05855 5.077504,-0.169475 9.61484,-0.61709 10.031584,-2.134649 13.623886,-3.751976 24.564951,-0.558084 8.837276,2.579755 17.087559,-8.427715 25.378201,-10.72407 M 36.553846,22.980359 c 0.699927,0.0644 5.158749,-0.165363 9.552492,-0.621914 9.980182,-2.269511 13.601225,-4.083297 24.489304,-0.872394 8.948357,2.638878 17.15449,-8.523113 25.513456,-10.90414 M 36.556132,22.856022 c 0.763553,0.07025 5.23998,-0.161242 9.490136,-0.626733 9.929141,-2.40331 13.577384,-4.417236 24.413673,-1.186705 9.064536,2.702335 17.222066,-8.637957 25.648968,-11.0948299 M 36.558423,22.731686 c 0.827181,0.0761 5.321217,-0.157123 9.427778,-0.631556 9.878541,-2.535995 13.552311,-4.753944 24.338029,-1.501004 9.185816,2.770413 17.290787,-8.774352 25.78439,-11.295128 M 36.560711,22.607353 c 0.890812,0.08196 5.402448,-0.153012 9.36542,-0.636381 9.828502,-2.667503 13.52603,-5.09366 24.262394,-1.815305 9.312101,2.843459 17.361938,-8.934629 25.919714,-11.5037934 M 36.562992,22.483012 c 0.95444,0.08782 5.483696,-0.148887 9.303072,-0.641194 9.779095,-2.797839 13.498527,-5.436458 24.186758,-2.129621 9.443081,2.921599 17.437407,-9.121047 26.054997,-11.7192384 M 36.565283,22.358678 c 1.018073,0.09367 5.564924,-0.144777 9.240711,-0.646014 9.73044,-2.926883 13.469751,-5.782394 24.11112,-2.443927 9.578248,3.004939 17.519958,-9.3358347 26.19059,-11.9396597 M 36.567571,22.234349 c 1.081702,0.09953 5.646161,-0.140665 9.178356,-0.650841 9.682612,-3.054633 13.444168,-6.145567 24.035464,-2.758231 9.602372,3.071052 17.651112,-9.5917368 26.3253,-12.1624098 M 36.569865,22.110011 c 1.145325,0.105388 5.727394,-0.136543 9.115998,-0.655662 9.635717,-3.181057 13.413069,-6.498406 23.959835,-3.072537 9.736776,3.16276 17.739514,-9.861665 26.462384,-12.3858408 M 36.572146,21.985676 c 1.208958,0.111234 5.808632,-0.132421 9.053644,-0.66048 C 55.215624,18.019073 59.00595,14.472237 69.509978,17.93835 79.386221,21.197304 87.344184,7.7800375 96.107846,5.332363 M 36.574432,21.861338 c 1.272591,0.117096 5.889874,-0.128307 8.991293,-0.665296 9.545039,-3.429843 13.345044,-7.208075 23.808553,-3.701149 C 79.39619,20.853806 87.312888,7.0146723 96.107651,4.6744888 M 36.576721,21.737005 c 1.336221,0.122949 5.971111,-0.124186 8.92893,-0.670122 9.501416,-3.552116 13.307161,-7.562239 23.732917,-4.015455 C 79.413354,20.512826 87.293335,6.227598 96.107532,4.02529 M 36.579006,21.612673 c 1.39985,0.128792 6.052345,-0.120071 8.866585,-0.674949 9.459019,-3.673013 13.264742,-7.910511 23.657276,-4.329753 10.268057,3.537867 18.035094,-11.0967101 26.81004,-13.1774937 0.06619,-0.015085 0.132202,-0.030022 0.198064,-0.044778 M 36.581292,21.488332 c 1.463475,0.134649 6.133584,-0.115954 8.804229,-0.679766 9.417915,-3.792471 13.156851,-8.07316 23.581638,-4.644063 C 80.397503,19.924362 85.352284,5.0365331 96.112029,2.7536406 M 36.583579,21.363999 c 1.52711,0.140514 6.214817,-0.11183 8.741872,-0.68459 9.378142,-3.910473 13.08101,-8.337787 23.506,-4.958374 C 80.32385,19.446461 85.135225,4.3281446 96.112084,2.1296541 M 36.585871,21.239663 c 1.59073,0.146362 6.296046,-0.107715 8.679515,-0.689403 C 54.60513,16.523219 58.266372,11.953062 68.695751,15.277572 80.250359,18.960771 84.905454,3.6275904 96.11106,1.5136596 M 36.58815,21.115329 c 1.65437,0.152215 6.377289,-0.103611 8.617162,-0.694231 9.30275,-4.142138 12.916569,-8.850407 23.354719,-5.586989 C 80.17441,18.465272 84.671538,2.9333202 96.112645,0.90483877 M 36.590444,20.990993 c 1.717995,0.158075 6.45852,-0.09948 8.554803,-0.699046 9.267182,-4.255773 12.828137,-9.098056 23.279074,-5.901301 C 80.092615,17.959776 84.434633,2.2470676 96.110253,0.30415475 M 36.59273,20.866653 c 1.781623,0.163923 6.539761,-0.09536 8.492447,-0.703864 9.233062,-4.367921 12.735391,-9.33863 23.20344,-6.215602 C 80.006488,17.44309 84.20085,1.5670737 96.112742,-0.29017173" />
          <path
             id="path2985-6-0"
             style="fill:url(#linearGradient4479-5-0);fill-opacity:1;stroke:none;stroke-width:0.0222909px;stroke-linecap:butt;stroke-linejoin:miter;stroke-opacity:1"
             d="M 96.092564,7.3100049 C 95.240855,7.4333013 94.34435,7.5949861 93.368801,7.8093814 83.353263,10.010474 81.572439,18.248948 74.041796,17.490896 70.38247,17.122539 62.379542,14.866784 58.782905,15.541963 c -6.127949,1.150369 -8.767855,5.080434 -15.044926,5.656643 -7.365849,0.67615 -12.02882,-2.997651 -19.331697,-1.90426 -6.136123,0.918699 -9.557817,7.920397 -12.419423,11.4218 -0.218692,0.267589 -0.445427,0.516638 -0.678631,0.751613 v 2.574486 c 2.213554,-1.091298 4.090674,-2.192642 5.151933,-2.882048 15.237852,-12.968006 12.870155,-2.15019 24.581301,-2.899941 3.95969,-0.2535 13.970558,-7.824658 17.948775,-8.652192 8.21641,-1.70913 9.853165,4.027763 18.039412,2.701257 6.766977,-1.096541 12.773436,-4.905851 19.062915,-7.255482 z" />
          <path
             id="path2974-6-6"
             style="fill:url(#linearGradient4687-8-8);fill-opacity:1;stroke:none;stroke-width:0.0222909px;stroke-linecap:butt;stroke-linejoin:miter;stroke-opacity:1"
             d="m 96.092564,12.819735 c -0.130723,0.02155 -0.260895,0.04019 -0.392389,0.06576 -4.884555,0.949656 -8.420279,4.239166 -14.419255,7.751303 -6.674613,3.907698 -16.296209,-4.754387 -22.928204,-3.092583 -6.737965,1.688356 -9.714808,7.492453 -16.398275,8.428154 -6.761289,0.946592 -10.839294,-7.384651 -19.743332,-3.829505 -5.343256,2.133419 -7.082485,7.501067 -9.663029,10.147123 -0.408971,0.419355 -0.821473,0.796005 -1.239852,1.137608 v 3.014389 c 0.681666,-0.283019 1.375481,-0.622165 2.084705,-1.028848 5.456288,-3.128714 7.660264,-9.934632 14.243433,-10.354455 3.592881,-0.229133 7.753044,4.211342 13.264348,4.893417 7.372024,0.912371 12.52479,-6.098139 16.76259,-6.85076 8.729614,-1.550334 11.814676,4.845542 18.303021,5.566598 8.480579,0.942455 13.806659,-5.82948 20.126239,-9.378212 z" />
          <path
             id="path1152-9"
             style="opacity:0.239939;fill:#e9ebed;fill-opacity:0.491332;stroke:none;stroke-width:0.0222909px;stroke-linecap:butt;stroke-linejoin:miter;stroke-opacity:1"
             d="M 96.094466,14.117167 C 90.030036,18.401425 84.87816,28.72249 76.978822,28.719353 84.873025,29.036422 90.030649,22.692282 96.094466,19.293155 Z M 61.235239,19.16698 c -7.59315,0.124913 -11.819708,10.444065 -19.582676,10.851341 6.969764,0.365984 11.919728,-6.190437 16.010741,-6.916988 8.729614,-1.550334 11.814681,4.845542 18.303021,5.566598 -6.082826,-0.675987 -7.550137,-9.619086 -14.731086,-9.500951 z m -33.890796,4.001647 c -6.475585,-0.0776 -11.141538,10.662847 -16.036334,12.526006 v 0.64131 c 0.668888,-0.300697 1.341913,-0.633226 2.011251,-1.000769 5.456288,-3.128716 7.733837,-9.856675 14.317006,-10.276498 3.592881,-0.229133 7.753044,4.232433 13.264348,4.914506 -5.511304,-0.682073 -7.60246,-6.733198 -13.556271,-6.804555 z" />
          <path
             id="path4167-6"
             style="fill:url(#linearGradient14655-6);fill-opacity:1;stroke:none;stroke-width:0.022291px;stroke-linecap:butt;stroke-linejoin:miter;stroke-opacity:1"
             d="m 96.092564,18.721272 c -5.868423,3.543186 -11.183851,9.761591 -18.689248,9.987415 -0.140725,0.0065 -0.28201,0.01089 -0.424494,0.01077 0.246697,0.01 0.490718,0.01334 0.732179,0.01055 0.965704,-0.01123 1.890476,-0.122046 2.781342,-0.313253 0.159758,-0.03429 0.317118,-0.07401 0.474734,-0.113377 0.06214,-0.01549 0.125373,-0.02838 0.1872,-0.04467 0,-3e-5 0,-6e-5 7.46e-4,-1.2e-4 0.104941,-0.02765 0.208034,-0.05988 0.312064,-0.08968 0.112713,-0.03229 0.22634,-0.06241 0.338015,-0.09715 0.214546,-0.06675 0.427117,-0.137912 0.637988,-0.213256 0,-6.2e-5 0,-1.85e-4 7.48e-4,-2.3e-4 0.210835,-0.07533 0.41994,-0.154792 0.627324,-0.238137 0,-5.9e-5 7.47e-4,-1.81e-4 7.47e-4,-2.29e-4 0.02411,-0.0096 0.04762,-0.02054 0.07168,-0.03033 0.183145,-0.07454 0.36554,-0.150943 0.546173,-0.231266 0.204144,-0.09078 0.406651,-0.185065 0.60778,-0.282683 0,-1.22e-4 7.46e-4,-2.29e-4 7.46e-4,-4.98e-4 0.189897,-0.09217 0.378433,-0.18777 0.565841,-0.285527 0.01135,-0.006 0.02283,-0.01123 0.03412,-0.01718 0.198268,-0.103852 0.395134,-0.21061 0.590838,-0.320123 0,-1.82e-4 7.48e-4,-2.29e-4 9.96e-4,-4.97e-4 0.195713,-0.109515 0.390244,-0.221758 0.583616,-0.336356 0,-1.8e-4 7.46e-4,-2.3e-4 9.96e-4,-4.99e-4 0.193351,-0.114592 0.385627,-0.231481 0.576864,-0.350572 0,-1.79e-4 7.48e-4,-4.98e-4 9.96e-4,-7.48e-4 0.191231,-0.119096 0.381364,-0.24024 0.570699,-0.363247 0,-1.82e-4 7.47e-4,-4.98e-4 9.96e-4,-7.47e-4 0.378923,-0.246187 0.754274,-0.499672 1.12695,-0.75801 0,-2.28e-4 7.46e-4,-4.97e-4 9.96e-4,-7.46e-4 0.173481,-0.120262 0.344736,-0.244411 0.517148,-0.366565 0.198285,-0.140486 0.397745,-0.279224 0.594865,-0.421539 0.7366,-0.531795 1.465906,-1.073899 2.195246,-1.607482 0,-1.83e-4 7.48e-4,-2.29e-4 7.48e-4,-4.99e-4 0.0237,-0.01735 0.04739,-0.03422 0.07109,-0.05154 0.341405,-0.249498 0.68284,-0.497468 1.025054,-0.741067 0.365207,-0.259978 0.731261,-0.515554 1.099099,-0.764287 v -1.23e-4 c 0.297104,-0.200902 0.596526,-0.393507 0.896388,-0.584322 0.07199,-0.0458 0.142993,-0.09514 0.215156,-0.140276 0.186265,-0.11648 0.37317,-0.230544 0.560864,-0.342161 0.108689,-0.06464 0.21825,-0.126477 0.327467,-0.189324 0.07953,-0.04576 0.158545,-0.09303 0.238374,-0.137787 z m -35.493895,3.77216 v 1.22e-4 c -7.385544,-0.191627 -10.551377,7.725834 -18.946106,7.52477 6.96977,0.365984 11.919728,-6.19044 16.010741,-6.916988 0.265243,-0.04711 0.52485,-0.08624 0.779928,-0.11907 0.08429,-0.01089 0.165348,-0.01708 0.248563,-0.02642 0.169106,-0.01897 0.338379,-0.03811 0.503166,-0.05107 0.09574,-0.0076 0.188249,-0.01066 0.28257,-0.01623 0.147541,-0.0087 0.295492,-0.01795 0.439662,-0.02192 0.09817,-0.0028 0.193616,-0.0015 0.290266,-0.0023 0.137031,-9.96e-4 0.274323,-0.0017 0.408389,0.0013 0.09335,0.0019 0.18457,0.0077 0.276524,0.01185 0.134673,0.0062 0.269026,0.01253 0.400803,0.02264 0.08746,0.0068 0.173363,0.01563 0.259582,0.02405 0.131248,0.01283 0.261899,0.0264 0.390378,0.04301 0.08404,0.01089 0.166857,0.02345 0.249749,0.0359 0.128833,0.0193 0.256866,0.03973 0.383034,0.06267 0.07657,0.01394 0.152446,0.02885 0.228065,0.04407 0.130899,0.02632 0.260549,0.05424 0.388719,0.08424 0.06862,0.01608 0.136982,0.03255 0.204846,0.04965 0.132394,0.0333 0.263331,0.06849 0.392985,0.105445 0.06016,0.01716 0.120256,0.03433 0.179845,0.05225 0.139482,0.04188 0.27731,0.08597 0.413837,0.131746 0.04697,0.01576 0.09412,0.0313 0.140751,0.0475 0.149073,0.05174 0.296302,0.105777 0.442152,0.161722 0.0324,0.01243 0.06513,0.02445 0.09739,0.03708 0.166093,0.06502 0.330191,0.132652 0.492507,0.202475 0.01054,0.0045 0.02114,0.0088 0.03164,0.0134 0.692394,0.299502 1.350661,0.641215 1.99395,0.998752 0.05681,0.0316 0.113572,0.06305 0.170131,0.0949 1.055964,0.594213 2.073175,1.226317 3.115804,1.797402 0.03482,0.01907 0.07008,0.03722 0.104975,0.05616 1.220086,0.661867 2.481463,1.232633 3.897153,1.541138 C 69.629053,27.29255 67.30974,22.66773 60.598675,22.493604 Z M 27.946775,24.83215 c -0.113469,-0.0023 -0.226329,1.82e-4 -0.338608,0.0073 -6.583169,0.419825 -9.300262,7.429741 -14.747547,10.574108 -0.526529,0.303934 -1.045841,0.565186 -1.552392,0.794976 v 0.229845 c 0.211429,-0.08819 0.423016,-0.177071 0.636927,-0.276405 0.172355,-0.08058 0.345907,-0.16375 0.522124,-0.252708 0.06738,-0.03392 0.134953,-0.06871 0.202595,-0.103783 0.238353,-0.123835 0.478639,-0.252306 0.722941,-0.392393 5.456287,-3.128708 7.660382,-9.934626 14.243551,-10.354447 2.694662,-0.171852 5.708371,2.294819 9.371934,3.826661 0.305297,0.127651 0.615051,0.248868 0.929566,0.361468 0.576705,0.206473 1.171391,0.378983 1.780931,0.515133 -4.768796,-1.090401 -8.518972,-4.867945 -11.772022,-4.929798 z m 11.772022,4.929789 c 0.09273,0.02122 0.185501,0.04212 0.279011,0.06126 -0.09367,-0.01877 -0.186129,-0.04051 -0.279011,-0.06126 z m 0.279011,0.06126 c 0.12361,0.02478 0.247124,0.04969 0.372131,0.07085 -0.12482,-0.02144 -0.248675,-0.0456 -0.372131,-0.07085 z m 0.372131,0.07085 c 0.01863,0.0032 0.03716,0.0064 0.0558,0.0096 -0.01865,-0.0031 -0.03719,-0.0064 -0.0558,-0.0096 z m 0.0558,0.0096 c 0.157342,0.02588 0.315384,0.04979 0.47497,0.06954 -0.15949,-0.01975 -0.317681,-0.04333 -0.47497,-0.06954 z M 74.870651,28.48362 c 0.175102,0.03979 0.35375,0.07531 0.536224,0.106156 0.183924,0.0304 0.369937,0.05713 0.559445,0.0782 -0.376928,-0.04188 -0.739937,-0.106832 -1.095669,-0.184348 z" />
          <path
             id="path16839-2"
             style="fill:url(#linearGradient25349-4);fill-opacity:1;stroke:none;stroke-width:0.222909;stroke-linecap:butt;stroke-linejoin:miter;stroke-miterlimit:4;stroke-dasharray:none;stroke-opacity:1"
             d="m 96.092564,6.9727031 c 0,0 -1.654432,0.2961029 -2.535739,0.5562455 C 83.063517,10.626345 82.255181,16.9518 75.358774,17.561746 72.398065,17.823604 63.873527,14.826534 59.132053,15.486635 53.009606,16.338995 49.835968,20.33162 44.482156,21.082361 37.889417,22.00683 31.079585,17.80574 23.645855,19.28384 17.849579,20.436353 15.5272,26.497656 11.308228,31.154509 v 0.281207 c 3.556423,-3.559367 6.431531,-10.663933 12.337627,-12.000109 7.202257,-1.629414 14.93778,3.255891 20.985672,1.862378 6.519751,-1.502233 8.426415,-4.705707 14.502302,-5.660886 5.389747,-0.847311 12.756089,2.743035 16.260136,2.314315 6.426644,-0.786296 8.783702,-7.292222 18.717684,-10.1650167 0.668088,-0.1932062 1.980915,-0.3083936 1.980915,-0.3083936 z" />
        </g>
      </g>
      <rect
         style="font-variation-settings:normal;opacity:1;vector-effect:none;fill:#23ab23;fill-opacity:0.7;stroke:none;stroke-width:0.585547;stroke-linecap:butt;stroke-linejoin:miter;stroke-miterlimit:4;stroke-dasharray:none;stroke-dashoffset:0;stroke-opacity:1;-inkscape-stroke:none;paint-order:stroke fill markers;stop-color:#000000;stop-opacity:1"
         id="rect2645"
         width="75.40625"
         height="52.916668"
         x="15.538551"
         y="-12.928558" />
      <text
         xml:space="preserve"
         style="font-style:normal;font-weight:normal;font-size:33.3412px;line-height:1.25;font-family:sans-serif;fill:#ffffff;fill-opacity:1;stroke:none;stroke-width:0.833533"
         x="40.006126"
         y="26.893181"
         id="text3960-5"><tspan
           sodipodi:role="line"
           id="tspan3958-8"
           style="fill:#ffffff;stroke-width:0.833533"
           x="40.006126"
           y="26.893181"></tspan></text>
    </g>
    <g
       id="telegram">
      <use
         x="0"
         y="0"
         xlink:href="#g2429"
         id="use2639"
         width="100%"
         height="100%"
         transform="translate(0,52.916668)" />
      <rect
         style="font-variation-settings:normal;opacity:1;vector-effect:none;fill:#23aaea;fill-opacity:0.7;stroke:none;stroke-width:0.671194;stroke-linecap:butt;stroke-linejoin:miter;stroke-miterlimit:4;stroke-dasharray:none;stroke-dashoffset:0;stroke-opacity:1;-inkscape-stroke:none;paint-order:stroke fill markers;stop-color:#000000;stop-opacity:1"
         id="rect1515"
         width="75.40625"
         height="52.916668"
         x="15.538551"
         y="39.98811" />
      <path
         style="font-size:14.0629px;line-height:1.25;fill:#ffffff;stroke-width:1.45378"
         d="m 68.153951,56.264733 -4.543026,21.806523 c -0.340727,1.59006 -1.249333,1.930788 -2.61224,1.249334 l -7.041688,-5.224481 -3.407271,3.293695 c -0.340728,0.340728 -0.681454,0.681452 -1.362908,0.681452 l 0.454302,-7.155264 13.0612,-11.811867 c 0.567878,-0.454303 -0.113588,-0.795029 -0.908606,-0.340728 L 45.665974,68.985204 38.737859,66.827268 C 37.261376,66.372966 37.261376,65.23721 39.078585,64.555755 L 66.223168,54.106797 c 1.249329,-0.454303 2.385084,0.340726 1.930783,2.157936 z"
         id="path4259" />
    </g>
    <g
       id="facebook">
      <use
         x="0"
         y="0"
         xlink:href="#g2429"
         id="use2641"
         width="100%"
         height="100%"
         transform="translate(0,105.83334)" />
      <rect
         style="font-variation-settings:normal;opacity:1;vector-effect:none;fill:#235eea;fill-opacity:0.7;stroke:none;stroke-width:0.671194;stroke-linecap:butt;stroke-linejoin:miter;stroke-miterlimit:4;stroke-dasharray:none;stroke-dashoffset:0;stroke-opacity:1;-inkscape-stroke:none;paint-order:stroke fill markers;stop-color:#000000;stop-opacity:1"
         id="rect969"
         width="75.40625"
         height="52.916668"
         x="15.538551"
         y="92.904778" />
      <text
         xml:space="preserve"
         style="font-style:normal;font-weight:normal;font-size:29.6107px;line-height:1.25;font-family:sans-serif;font-variation-settings:normal;opacity:1;vector-effect:none;fill:#ffffff;fill-opacity:1;stroke:none;stroke-width:4.06749;stroke-linecap:butt;stroke-linejoin:miter;stroke-miterlimit:4;stroke-dasharray:none;stroke-dashoffset:0;stroke-opacity:1;-inkscape-stroke:none;stop-color:#000000;stop-opacity:1"
         x="41.317978"
         y="130.58995"
         id="text4245"><tspan
           sodipodi:role="line"
           id="tspan4243"
           style="font-variation-settings:normal;vector-effect:none;fill:#ffffff;fill-opacity:1;stroke-width:4.06749;stroke-linecap:butt;stroke-linejoin:miter;stroke-miterlimit:4;stroke-dasharray:none;stroke-dashoffset:0;stroke-opacity:1;-inkscape-stroke:none;stop-color:#000000;stop-opacity:1"
           x="41.317978"
           y="130.58995"></tspan></text>
    </g>
    <g
       id="telegram-channel">
      <use
         x="0"
         y="0"
         xlink:href="#g2429"
         id="use2639-4"
         width="100%"
         height="100%"
         transform="translate(75.40625,52.916668)" />
      <rect
         style="font-variation-settings:normal;vector-effect:none;fill:#23aaea;fill-opacity:0.7;stroke:none;stroke-width:0.671194;stroke-linecap:butt;stroke-linejoin:miter;stroke-miterlimit:4;stroke-dasharray:none;stroke-dashoffset:0;stroke-opacity:1;-inkscape-stroke:none;paint-order:stroke fill markers;stop-color:#000000"
         id="rect1515-5"
         width="75.40625"
         height="52.916668"
         x="90.944801"
         y="39.988117" />
      <path
         style="font-size:14.0629px;line-height:1.25;fill:#ffffff;stroke-width:1.45378"
         d="m 136.18902,53.508046 -4.54303,21.80652 c -0.34072,1.59006 -1.24933,1.93079 -2.61224,1.24934 l -7.04168,-5.22449 -3.40728,3.2937 c -0.34072,0.34073 -0.68145,0.68145 -1.3629,0.68145 l 0.4543,-7.15526 13.0612,-11.81187 c 0.56788,-0.4543 -0.11359,-0.79503 -0.90861,-0.34073 l -16.12774,10.22181 -6.92811,-2.15794 c -1.47649,-0.4543 -1.47649,-1.59005 0.34072,-2.27151 l 27.14459,-10.44896 c 1.24933,-0.4543 2.38508,0.34073 1.93078,2.15794 z"
         id="path4259-5" />
      <text
         xml:space="preserve"
         style="font-style:normal;font-variant:normal;font-weight:normal;font-stretch:normal;font-size:17.419px;line-height:1.25;font-family:sans-serif;font-variant-ligatures:normal;font-variant-position:normal;font-variant-caps:normal;font-variant-numeric:normal;font-variant-alternates:normal;font-variant-east-asian:normal;font-feature-settings:normal;font-variation-settings:normal;text-indent:0;text-align:start;text-decoration-line:none;text-decoration-style:solid;text-decoration-color:#000000;letter-spacing:normal;word-spacing:normal;text-transform:none;writing-mode:lr-tb;direction:ltr;text-orientation:mixed;dominant-baseline:auto;baseline-shift:baseline;text-anchor:start;white-space:normal;shape-padding:0;shape-margin:0;inline-size:0;opacity:1;vector-effect:none;fill:#ffffff;fill-opacity:1;stroke:none;stroke-width:2.39277;stroke-linecap:butt;stroke-linejoin:miter;stroke-miterlimit:4;stroke-dasharray:none;stroke-dashoffset:0;stroke-opacity:1;-inkscape-stroke:none;stop-color:#000000;stop-opacity:1"
         x="137.69257"
         y="78.900032"
         id="text8470"
         transform="translate(-1.8290522,-0.1180079)"><tspan
           sodipodi:role="line"
           id="tspan8468"
           style="font-style:normal;font-variant:normal;font-weight:normal;font-stretch:normal;font-size:17.419px;line-height:1.25;font-family:sans-serif;font-variant-ligatures:normal;font-variant-position:normal;font-variant-caps:normal;font-variant-numeric:normal;font-variant-alternates:normal;font-variant-east-asian:normal;font-feature-settings:normal;font-variation-settings:normal;text-indent:0;text-align:start;text-decoration-line:none;text-decoration-style:solid;text-decoration-color:#000000;letter-spacing:normal;word-spacing:normal;text-transform:none;writing-mode:lr-tb;direction:ltr;text-orientation:mixed;dominant-baseline:auto;baseline-shift:baseline;text-anchor:start;white-space:normal;shape-padding:0;shape-margin:0;inline-size:0;vector-effect:none;fill:#ffffff;fill-opacity:1;stroke:none;stroke-width:2.39277;stroke-linecap:butt;stroke-linejoin:miter;stroke-miterlimit:4;stroke-dasharray:none;stroke-dashoffset:0;stroke-opacity:1;-inkscape-stroke:none;stop-color:#000000;stop-opacity:1"
           x="137.69257"
           y="78.900032"></tspan></text>
    </g>
    <g
       id="telegram-community">
      <use
         x="0"
         y="0"
         xlink:href="#g2429"
         id="use10292"
         width="100%"
         height="100%"
         transform="translate(150.8125,52.916668)" />
      <rect
         style="font-variation-settings:normal;vector-effect:none;fill:#23aaea;fill-opacity:0.7;stroke:none;stroke-width:0.671194;stroke-linecap:butt;stroke-linejoin:miter;stroke-miterlimit:4;stroke-dasharray:none;stroke-dashoffset:0;stroke-opacity:1;-inkscape-stroke:none;paint-order:stroke fill markers;stop-color:#000000"
         id="rect10294"
         width="75.40625"
         height="52.916668"
         x="166.35106"
         y="39.988117" />
      <path
         style="font-size:14.0629px;line-height:1.25;fill:#ffffff;stroke-width:1.45378"
         d="m 207.36189,51.391378 -4.54303,21.80652 c -0.34072,1.59006 -1.24933,1.93079 -2.61224,1.24934 l -7.04168,-5.22449 -3.40728,3.2937 c -0.34072,0.34073 -0.68145,0.68145 -1.3629,0.68145 l 0.4543,-7.15526 13.0612,-11.81187 c 0.56788,-0.4543 -0.11359,-0.79503 -0.90861,-0.34073 l -16.12774,10.22181 -6.92811,-2.15794 c -1.47649,-0.4543 -1.47649,-1.59005 0.34072,-2.27151 l 27.14459,-10.44896 c 1.24933,-0.4543 2.38508,0.34073 1.93078,2.15794 z"
         id="path10296" />
      <text
         xml:space="preserve"
         style="font-style:normal;font-weight:normal;font-size:17.419px;line-height:1.25;font-family:sans-serif;font-variation-settings:normal;opacity:1;vector-effect:none;fill:#ffffff;fill-opacity:1;stroke:none;stroke-width:2.39277;stroke-linecap:butt;stroke-linejoin:miter;stroke-miterlimit:4;stroke-dasharray:none;stroke-dashoffset:0;stroke-opacity:1;-inkscape-stroke:none;stop-color:#000000;stop-opacity:1"
         x="207.21835"
         y="81.362228"
         id="text10300"><tspan
           sodipodi:role="line"
           id="tspan10298"
           style="font-variation-settings:normal;vector-effect:none;fill:#ffffff;fill-opacity:1;stroke-width:2.39277;stroke-linecap:butt;stroke-linejoin:miter;stroke-miterlimit:4;stroke-dasharray:none;stroke-dashoffset:0;stroke-opacity:1;-inkscape-stroke:none;stop-color:#000000;stop-opacity:1"
           x="207.21835"
           y="81.362228"></tspan></text>
    </g>
    <g
       id="facebook-community">
      <use
         x="0"
         y="0"
         xlink:href="#g2429"
         id="use10302"
         width="100%"
         height="100%"
         transform="translate(150.81249,105.83334)" />
      <rect
         style="font-variation-settings:normal;opacity:1;vector-effect:none;fill:#235eea;fill-opacity:0.7;stroke:none;stroke-width:0.671194;stroke-linecap:butt;stroke-linejoin:miter;stroke-miterlimit:4;stroke-dasharray:none;stroke-dashoffset:0;stroke-opacity:1;-inkscape-stroke:none;paint-order:stroke fill markers;stop-color:#000000;stop-opacity:1"
         id="rect10390"
         width="75.40625"
         height="52.916668"
         x="166.35104"
         y="92.904785" />
      <text
         xml:space="preserve"
         style="font-style:normal;font-weight:normal;font-size:29.6107px;line-height:1.25;font-family:sans-serif;font-variation-settings:normal;opacity:1;vector-effect:none;fill:#ffffff;fill-opacity:1;stroke:none;stroke-width:4.06749;stroke-linecap:butt;stroke-linejoin:miter;stroke-miterlimit:4;stroke-dasharray:none;stroke-dashoffset:0;stroke-opacity:1;-inkscape-stroke:none;stop-color:#000000;stop-opacity:1"
         x="177.85245"
         y="126.73035"
         id="text10308"><tspan
           sodipodi:role="line"
           id="tspan10306"
           style="font-variation-settings:normal;vector-effect:none;fill:#ffffff;fill-opacity:1;stroke-width:4.06749;stroke-linecap:butt;stroke-linejoin:miter;stroke-miterlimit:4;stroke-dasharray:none;stroke-dashoffset:0;stroke-opacity:1;-inkscape-stroke:none;stop-color:#000000;stop-opacity:1"
           x="177.85245"
           y="126.73035"></tspan></text>
      <text
         xml:space="preserve"
         style="font-style:normal;font-weight:normal;font-size:17.419px;line-height:1.25;font-family:sans-serif;font-variation-settings:normal;opacity:1;vector-effect:none;fill:#ffffff;fill-opacity:1;stroke:none;stroke-width:2.39277;stroke-linecap:butt;stroke-linejoin:miter;stroke-miterlimit:4;stroke-dasharray:none;stroke-dashoffset:0;stroke-opacity:1;-inkscape-stroke:none;stop-color:#000000;stop-opacity:1"
         x="207.21835"
         y="134.2789"
         id="text10394"><tspan
           sodipodi:role="line"
           id="tspan10392"
           style="font-variation-settings:normal;vector-effect:none;fill:#ffffff;fill-opacity:1;stroke-width:2.39277;stroke-linecap:butt;stroke-linejoin:miter;stroke-miterlimit:4;stroke-dasharray:none;stroke-dashoffset:0;stroke-opacity:1;-inkscape-stroke:none;stop-color:#000000;stop-opacity:1"
           x="207.21835"
           y="134.2789"></tspan></text>
    </g>
    <g
       id="facebook-channel">
      <use
         x="0"
         y="0"
         xlink:href="#g2429"
         id="use10728"
         width="100%"
         height="100%"
         transform="translate(75.40625,105.83334)" />
      <rect
         style="font-variation-settings:normal;opacity:1;vector-effect:none;fill:#235eea;fill-opacity:0.7;stroke:none;stroke-width:0.671194;stroke-linecap:butt;stroke-linejoin:miter;stroke-miterlimit:4;stroke-dasharray:none;stroke-dashoffset:0;stroke-opacity:1;-inkscape-stroke:none;paint-order:stroke fill markers;stop-color:#000000;stop-opacity:1"
         id="rect10940"
         width="75.40625"
         height="52.916668"
         x="90.944794"
         y="92.904785" />
      <text
         xml:space="preserve"
         style="font-style:normal;font-variant:normal;font-weight:normal;font-stretch:normal;font-size:17.419px;line-height:1.25;font-family:sans-serif;font-variant-ligatures:normal;font-variant-position:normal;font-variant-caps:normal;font-variant-numeric:normal;font-variant-alternates:normal;font-variant-east-asian:normal;font-feature-settings:normal;font-variation-settings:normal;text-indent:0;text-align:start;text-decoration-line:none;text-decoration-style:solid;text-decoration-color:#000000;letter-spacing:normal;word-spacing:normal;text-transform:none;writing-mode:lr-tb;direction:ltr;text-orientation:mixed;dominant-baseline:auto;baseline-shift:baseline;text-anchor:start;white-space:normal;shape-padding:0;shape-margin:0;inline-size:0;opacity:1;vector-effect:none;fill:#ffffff;fill-opacity:1;stroke:none;stroke-width:2.39277;stroke-linecap:butt;stroke-linejoin:miter;stroke-miterlimit:4;stroke-dasharray:none;stroke-dashoffset:0;stroke-opacity:1;-inkscape-stroke:none;stop-color:#000000;stop-opacity:1"
         x="137.69257"
         y="78.900032"
         id="text10736"
         transform="translate(-1.8290522,52.79866)"><tspan
           sodipodi:role="line"
           id="tspan10734"
           style="font-style:normal;font-variant:normal;font-weight:normal;font-stretch:normal;font-size:17.419px;line-height:1.25;font-family:sans-serif;font-variant-ligatures:normal;font-variant-position:normal;font-variant-caps:normal;font-variant-numeric:normal;font-variant-alternates:normal;font-variant-east-asian:normal;font-feature-settings:normal;font-variation-settings:normal;text-indent:0;text-align:start;text-decoration-line:none;text-decoration-style:solid;text-decoration-color:#000000;letter-spacing:normal;word-spacing:normal;text-transform:none;writing-mode:lr-tb;direction:ltr;text-orientation:mixed;dominant-baseline:auto;baseline-shift:baseline;text-anchor:start;white-space:normal;shape-padding:0;shape-margin:0;inline-size:0;vector-effect:none;fill:#ffffff;fill-opacity:1;stroke:none;stroke-width:2.39277;stroke-linecap:butt;stroke-linejoin:miter;stroke-miterlimit:4;stroke-dasharray:none;stroke-dashoffset:0;stroke-opacity:1;-inkscape-stroke:none;stop-color:#000000;stop-opacity:1"
           x="137.69257"
           y="78.900032"></tspan></text>
      <text
         xml:space="preserve"
         style="font-style:normal;font-weight:normal;font-size:29.6107px;line-height:1.25;font-family:sans-serif;font-variation-settings:normal;opacity:1;vector-effect:none;fill:#ffffff;fill-opacity:1;stroke:none;stroke-width:4.06749;stroke-linecap:butt;stroke-linejoin:miter;stroke-miterlimit:4;stroke-dasharray:none;stroke-dashoffset:0;stroke-opacity:1;-inkscape-stroke:none;stop-color:#000000;stop-opacity:1"
         x="106.15036"
         y="128.31784"
         id="text10944"><tspan
           sodipodi:role="line"
           id="tspan10942"
           style="font-variation-settings:normal;vector-effect:none;fill:#ffffff;fill-opacity:1;stroke-width:4.06749;stroke-linecap:butt;stroke-linejoin:miter;stroke-miterlimit:4;stroke-dasharray:none;stroke-dashoffset:0;stroke-opacity:1;-inkscape-stroke:none;stop-color:#000000;stop-opacity:1"
           x="106.15036"
           y="128.31784"></tspan></text>
    </g>
  </g>
</svg>
